<svg width="24" height="24" viewBox="0 0 24 24" fill="none" xmlns="http://www.w3.org/2000/svg">
<path d="M12 15.2792C12.2408 15.2792 12.4425 15.3611 12.6055 15.5238C12.7684 15.6868 12.8501 15.8885 12.8501 16.1293C12.8501 16.3702 12.7684 16.5718 12.6055 16.7348C12.4425 16.8978 12.2409 16.9794 12 16.9794C11.7591 16.9794 11.5575 16.8978 11.3945 16.7348C11.2316 16.5718 11.1499 16.3702 11.1499 16.1293C11.1499 15.8885 11.2316 15.6868 11.3945 15.5238C11.5575 15.3611 11.7592 15.2792 12 15.2792Z" fill="white"/>
<path d="M12 6.81805C12.436 6.81805 12.7895 7.17151 12.7895 7.60752V12.3444C12.7895 12.7804 12.436 13.1338 12 13.1338C11.564 13.1338 11.2105 12.7804 11.2105 12.3444V7.60752C11.2105 7.17151 11.564 6.81805 12 6.81805Z" fill="white"/>
<path fill-rule="evenodd" clip-rule="evenodd" d="M11.9979 2C13.381 2 14.6811 2.2626 15.898 2.78742C17.115 3.31233 18.1742 4.02472 19.0744 4.92455C19.9745 5.82434 20.6873 6.88246 21.2126 8.09889C21.7376 9.31531 22 10.6151 22 11.9979C22 13.381 21.7374 14.6811 21.2126 15.898C20.6877 17.115 19.9753 18.1742 19.0755 19.0744C18.1757 19.9745 17.1175 20.6873 15.9011 21.2126C14.6847 21.7376 13.3849 22 12.0021 22C10.619 22 9.3189 21.7374 8.10197 21.2126C6.88496 20.6877 5.82575 19.9753 4.92558 19.0755C4.02547 18.1757 3.31265 17.1175 2.78742 15.9011C2.26237 14.6847 2.00003 13.3849 2 12.0021C2 10.619 2.2626 9.3189 2.78742 8.10197C3.31233 6.88496 4.02472 5.82575 4.92455 4.92558C5.82434 4.02547 6.88246 3.31265 8.09889 2.78742C9.31531 2.26237 10.6151 2.00003 11.9979 2ZM12 3.57895C9.64912 3.57895 7.6581 4.39494 6.02652 6.02652C4.39494 7.6581 3.57895 9.64912 3.57895 12C3.57895 14.3509 4.39494 16.3419 6.02652 17.9735C7.6581 19.6051 9.64912 20.4211 12 20.4211C14.3509 20.4211 16.3419 19.6051 17.9735 17.9735C19.6051 16.3419 20.4211 14.3509 20.4211 12C20.4211 9.64912 19.6051 7.6581 17.9735 6.02652C16.3419 4.39494 14.3509 3.57895 12 3.57895Z" fill="white"/>
</svg>
