<svg width="20" height="20" viewBox="0 0 20 20" fill="none" xmlns="http://www.w3.org/2000/svg">
<path d="M11.5533 10.0014L7.46815 14.0865C7.36536 14.1893 7.31307 14.3159 7.31128 14.4661C7.30949 14.6163 7.35999 14.7429 7.46279 14.8458C7.56559 14.9486 7.69211 15 7.84235 15C7.99259 15 8.11915 14.9486 8.22205 14.8458L12.4332 10.64C12.5258 10.5473 12.592 10.447 12.6319 10.3391C12.6718 10.2312 12.6917 10.1187 12.6917 10.0014C12.6917 9.88407 12.6718 9.77148 12.6319 9.6636C12.592 9.55572 12.5258 9.45542 12.4332 9.3627L8.22741 5.15692C8.12461 5.05413 7.9972 5.00183 7.84517 5.00005C7.69305 4.99826 7.56559 5.04876 7.46279 5.15156C7.35999 5.25435 7.30859 5.38087 7.30859 5.53112C7.30859 5.68136 7.35999 5.80792 7.46279 5.91081L11.5533 10.0014Z" fill="#C5C6CD"/>
</svg>
