<svg width="30" height="35" viewBox="0 0 30 35" fill="none" xmlns="http://www.w3.org/2000/svg">
<path d="M1.21821 16.8865V27.9296C1.21821 28.0682 1.33058 28.1806 1.46919 28.1806H7.24173C7.38035 28.1806 7.49272 28.0682 7.49272 27.9296V17.1375C7.49272 16.9988 7.38035 16.8865 7.24173 16.8865H1.21821ZM1.21821 16.8865C1.00906 11.6577 2.45513 1.2002 14.3947 1.2002C26.9312 1.2002 28.1984 11.6577 28.1984 16.8865M28.1984 16.8865H22.1571C22.0185 16.8865 21.9061 16.9988 21.9061 17.1375V27.9296C21.9061 28.0682 22.0185 28.1806 22.1571 28.1806H28.1984M28.1984 16.8865V28.1806M15.0219 33.2002H23.1788C25.951 33.2002 28.1984 30.9528 28.1984 28.1806" stroke="#6F717C" stroke-width="2.4" stroke-linecap="round"/>
</svg>
