<svg width="32" height="32" viewBox="0 0 32 32" fill="none" xmlns="http://www.w3.org/2000/svg">
<path d="M14.2815 16.0015L18.802 20.5219C18.9157 20.6357 18.9736 20.7757 18.9755 20.9419C18.9775 21.1082 18.9216 21.2482 18.8079 21.3621C18.6941 21.4758 18.5541 21.5327 18.3879 21.5327C18.2216 21.5327 18.0816 21.4758 17.9677 21.3621L13.3079 16.7082C13.2054 16.6056 13.1321 16.4946 13.088 16.3752C13.0439 16.2558 13.0218 16.1313 13.0218 16.0015C13.0218 15.8717 13.0439 15.7471 13.088 15.6277C13.1321 15.5083 13.2054 15.3974 13.3079 15.2947L17.9618 10.6408C18.0755 10.5271 18.2165 10.4692 18.3848 10.4672C18.5531 10.4653 18.6941 10.5212 18.8079 10.6349C18.9216 10.7487 18.9785 10.8887 18.9785 11.0549C18.9785 11.2212 18.9216 11.3612 18.8079 11.4751L14.2815 16.0015Z" fill="#1E1E1E"/>
</svg>
