<svg width="20" height="20" viewBox="0 0 20 20" fill="none" xmlns="http://www.w3.org/2000/svg">
<mask id="mask0_8221_7231" style="mask-type:alpha" maskUnits="userSpaceOnUse" x="0" y="0" width="20" height="20">
<rect width="20" height="20" fill="#D9D9D9"/>
</mask>
<g mask="url(#mask0_8221_7231)">
<path d="M15.4444 4.05556H14.6667V2.5H13.1111V4.05556H6.88889V2.5H5.33333V4.05556H4.55556C3.69222 4.05556 3.00778 4.75556 3.00778 5.61111L3 16.5C3 17.3556 3.69222 18.0556 4.55556 18.0556H15.4444C16.3 18.0556 17 17.3556 17 16.5V5.61111C17 4.75556 16.3 4.05556 15.4444 4.05556ZM15.4444 16.5H4.55556V8.72222H15.4444V16.5ZM7.66667 11.8333H6.11111V10.2778H7.66667V11.8333ZM10.7778 11.8333H9.22222V10.2778H10.7778V11.8333ZM13.8889 11.8333H12.3333V10.2778H13.8889V11.8333ZM7.66667 14.9444H6.11111V13.3889H7.66667V14.9444ZM10.7778 14.9444H9.22222V13.3889H10.7778V14.9444ZM13.8889 14.9444H12.3333V13.3889H13.8889V14.9444Z" fill="#6F717C"/>
</g>
</svg>
