<svg width="277" height="218" viewBox="0 0 277 218" fill="none" xmlns="http://www.w3.org/2000/svg">
<g clip-path="url(#clip0_8814_26391)">
<path d="M244.233 168.094C243.679 167.482 242.958 166.447 243.227 165.66C243.439 165.048 248.496 157.84 249.094 157.279C250.551 155.895 251.112 156.281 252.672 157.155C254.231 158.03 258.524 161.214 258.247 162.941C258.065 164.064 252.118 172.124 251.112 172.401C249.932 172.729 245.115 169.085 244.226 168.101L244.233 168.094Z" fill="#DDE0FF"/>
<path d="M251.908 114.01C251.092 114.12 249.824 114.119 249.336 113.449C248.957 112.932 245.896 104.668 245.772 103.859C245.466 101.877 246.093 101.629 247.704 100.842C249.314 100.055 254.372 98.3349 255.632 99.5373C256.456 100.324 259.706 109.798 259.363 110.782C258.963 111.941 253.227 113.835 251.908 114.01Z" fill="#DDE0FF"/>
<path d="M180.76 212.9C180.286 212.222 179.696 211.107 180.061 210.364C180.345 209.788 186.233 203.237 186.896 202.748C188.507 201.553 189.017 201.998 190.467 203.055C191.917 204.111 195.787 207.791 195.306 209.467C194.993 210.561 188.113 217.841 187.086 217.994C185.876 218.176 181.533 213.978 180.767 212.893L180.76 212.9Z" fill="#DDE0FF"/>
<path d="M149.637 86.6567C150.111 86.7368 151 87.6186 151.787 87.6478C152.691 89.0397 150.752 92.9312 149.637 92.9312H123.636L122.368 88.9887C122.652 88.1652 125.756 86.6567 126.325 86.6567C132.825 86.6567 143.829 85.6801 149.637 86.6567Z" fill="#DDE0FF"/>
<path d="M16.7064 87.7801C18.6959 85.8708 38.8457 86.2789 42.0158 87.5688C45.0546 88.8077 45.0911 91.2271 42.4676 92.4878C39.9826 93.6757 17.406 93.5737 15.9558 91.1542L16.6991 87.7874L16.7064 87.7801Z" fill="#DDE0FF"/>
<path d="M81.6586 28.2087C83.6699 27.633 85.3315 28.1139 85.5136 30.3147C84.1582 35.2119 88.21 48.5625 85.6011 51.9148C80.7695 58.1237 79.5088 47.0759 79.2537 43.7528C78.9987 40.4297 78.095 29.2289 81.6586 28.2087Z" fill="#DDE0FF"/>
<path d="M108.027 103.16C108.748 102.139 111.59 102.139 112.902 102.992C113.878 103.626 126.311 116.066 126.814 116.911C127.659 118.339 128.213 119.454 127.28 121.058C126.566 122.041 124.817 122.092 123.673 121.91C121.275 121.531 105.775 106.344 108.027 103.16Z" fill="#DDE0FF"/>
<path d="M42.2257 44.6454C43.8143 44.1936 44.39 44.6017 45.6653 45.3669C47.1739 46.2706 59.4459 59.1766 59.5625 60.2552C59.8176 62.609 57.0484 64.8171 55.0589 63.8406C53.5577 63.1046 40.1269 48.8503 39.9155 47.4876C39.7334 46.2997 41.2346 44.9297 42.233 44.6454H42.2257Z" fill="#DDE0FF"/>
<path d="M125.639 44.7177C126.404 45.5047 126.827 46.9841 126.353 48.0699C124.91 51.3711 115.05 57.4707 113.389 62.0691C112.215 63.5849 108.55 64.0731 107.427 62.5063C106.677 61.2602 106.925 60.1088 107.493 58.8699C107.865 58.061 118.49 46.5905 119.554 45.8254C121.121 44.6885 123.948 42.976 125.639 44.7177Z" fill="#DDE0FF"/>
<path d="M58.2771 121.31C55.231 125.945 48.2642 130.375 45.1597 135.571C42.7476 136.774 38.8123 133.633 40.6342 131.024C42.4925 128.364 53.1468 116.748 55.6901 116.376C58.984 115.888 60.0844 118.57 58.2771 121.317V121.31Z" fill="#DDE0FF"/>
<path d="M85.8867 141.928L91.2539 143.319C87.643 146.82 83.4174 164.736 78.6622 164.567C77.0175 164.508 74.5019 162.804 75.1509 161.614L85.8833 141.934L85.8867 141.928Z" fill="#DDE0FF"/>
<path d="M68.792 170.849C69.5135 170.842 70.1839 171.855 70.6066 172.343C71.3937 173.261 76.1669 179.995 76.2034 180.6C76.3127 182.283 70.5702 186.583 69.0908 186.561C68.7264 186.561 68.4714 186.488 68.1434 186.335C66.9775 185.796 61.1985 177.933 61.2276 176.715C62.8163 174.056 65.9353 172.088 68.7847 170.842L68.792 170.849Z" fill="#DDE0FF"/>
<path d="M215.017 40.5543C216.898 42.5803 219.776 43.36 222.385 43.9722C223.755 44.2928 227.26 43.6588 227.071 45.8888C226.918 47.6596 222.633 47.6377 220.891 48.1916C212.255 50.9463 211.308 59.939 210.251 67.5835L208.779 67.7293C208.233 67.5471 208.211 67.1681 208.116 66.6944C206.79 60.194 206.666 51.4054 199.211 48.5268C197.433 47.8418 192.295 47.4993 191.603 46.8361C191.195 46.4426 191.078 46.2021 191.231 45.6337C192.288 43.6151 194.299 44.373 195.946 43.9722C204.159 41.99 205.857 38.0037 207.562 30.2062C207.89 28.6976 207.723 23.0061 210.259 24.8061L210.587 25.3236C210.776 29.8636 211.855 37.1292 215.025 40.5543H215.017ZM218.676 45.7794C213.662 44.7956 210.543 40.2118 209.166 35.6207C207.905 39.8402 205.187 44.5187 200.494 45.3568L200.756 46.224C205.566 47.7762 208.255 52.4985 209.166 57.1989C210.317 53.5333 212.051 50.3341 215.09 47.8928L218.683 45.7867L218.676 45.7794Z" fill="#3617B3"/>
<path d="M234.41 186.19C237.448 190.448 239.221 194.404 237.556 199.733C235.228 207.16 225.026 205.998 223.532 198.098C222.487 192.58 225.53 188.724 229.488 185.355C221.982 178.927 213.527 184.075 205.495 183.278C201.157 182.844 196.431 181.155 192.96 178.502C191.834 177.64 185.666 172.043 188.263 170.795C190.333 170.663 191.437 173.627 193.053 175.096C205.339 186.274 215.797 175.633 227.621 181.169C228.758 181.7 231.831 184.035 232.219 184.1C232.902 184.215 235.375 183.264 236.446 183.178C243.394 182.64 250.617 186.884 255.042 191.989C255.569 192.594 258.593 196.754 258.625 197.136C258.712 198.111 257.572 198.74 256.703 198.505C254.726 196.591 253.398 194.165 251.443 192.211C246.939 187.707 240.886 184.723 234.406 186.168L234.41 186.19ZM235.448 195.617C235.512 192.82 233.746 189.522 231.672 187.703C228.919 189.265 226.868 191.27 226.229 194.495C224.611 202.618 235.219 205.718 235.448 195.617Z" fill="#DDE0FF"/>
<g filter="url(#filter0_d_8814_26391)">
<path d="M79.1855 77.1666C78.4501 72.2507 81.8391 67.6695 86.755 66.9341L172.946 54.0406C175.25 53.6958 177.599 54.2584 179.497 55.6099L185.803 60.0998L192.442 64.7889C194.447 66.2055 195.787 68.38 196.15 70.8084L213.046 183.755C213.781 188.671 210.393 193.252 205.477 193.987L107.944 208.578C103.028 209.313 98.4468 205.924 97.7114 201.008L79.1855 77.1666Z" fill="white"/>
</g>
<g filter="url(#filter1_d_8814_26391)">
<path d="M100.046 101.695L181.751 89.4728" stroke="#5551F5" stroke-width="6" stroke-linecap="round"/>
</g>
<g filter="url(#filter2_d_8814_26391)">
<path d="M103.005 121.476L156.479 113.476" stroke="#5551F5" stroke-width="6" stroke-linecap="round"/>
</g>
<g filter="url(#filter3_d_8814_26391)">
<path d="M105.964 141.255L173.835 131.102" stroke="#5551F5" stroke-width="6" stroke-linecap="round"/>
</g>
<g filter="url(#filter4_d_8814_26391)">
<path d="M108.923 161.035L171.329 151.7" stroke="#5551F5" stroke-width="6" stroke-linecap="round"/>
</g>
<g filter="url(#filter5_d_8814_26391)">
<path d="M111.882 180.814L179.753 170.661" stroke="#5551F5" stroke-width="6" stroke-linecap="round"/>
</g>
<path d="M176.525 70.4247L174.388 56.1391C174.127 54.3974 176.082 53.1935 177.52 54.21L194.573 66.2644C196.045 67.3049 195.498 69.6088 193.715 69.8755L178.799 72.1068C177.706 72.2703 176.688 71.5172 176.525 70.4247Z" fill="#768AFE"/>
<g filter="url(#filter6_d_8814_26391)">
<circle cx="214.02" cy="149.303" r="23.0618" transform="rotate(-8.50798 214.02 149.303)" fill="#5551F5"/>
</g>
<path d="M203.318 151.945L210.828 157.508C211.751 158.191 213.057 157.96 213.689 157.002L223.942 141.45" stroke="white" stroke-width="6" stroke-linecap="round"/>
<path d="M83.8456 102.943C85.403 104.639 87.7873 105.291 89.9483 105.803C91.0831 106.072 93.9865 105.541 93.8296 107.407C93.7028 108.889 90.1535 108.871 88.7109 109.335C81.5579 111.64 80.7732 119.166 79.898 125.563L78.6786 125.685C78.2259 125.533 78.2078 125.215 78.1293 124.819C77.0307 119.379 76.9281 112.024 70.7531 109.615C69.2802 109.042 65.0247 108.755 64.4512 108.2C64.1132 107.871 64.0166 107.67 64.1434 107.194C65.0186 105.505 66.6847 106.139 68.0488 105.803C74.8517 104.145 76.2581 100.809 77.6706 94.2831C77.9422 93.0207 77.8034 88.2576 79.904 89.764L80.1756 90.197C80.3326 93.9965 81.2259 100.077 83.8517 102.943H83.8456ZM86.8758 107.316C82.7229 106.493 80.1394 102.657 78.9986 98.8144C77.9543 102.345 75.7028 106.261 71.8154 106.962L72.0327 107.688C76.0167 108.987 78.244 112.939 78.9986 116.872C79.9523 113.805 81.3889 111.128 83.906 109.084L86.8819 107.322L86.8758 107.316Z" fill="#3617B3"/>
<path d="M201.468 116.89L201.302 115.477C201.738 114.304 205.155 114.232 206.378 113.884C211.439 112.452 218.318 109.06 220.013 103.638C222.306 96.3244 215.715 91.0577 218.165 83.2755C222.187 70.4719 240.056 75.9401 238.723 57.3623C238.561 55.1287 236.069 49.9472 239.817 50.7251C242.84 57.0952 241.819 67.0602 236.536 71.976C231.996 76.2014 223.125 77.1634 221.02 83.7039C218.249 92.3027 227.277 97.51 221.287 107.54C217.959 113.118 207.915 118.18 201.462 116.882L201.468 116.89Z" fill="#DDE0FF"/>
</g>
<defs>
<filter id="filter0_d_8814_26391" x="75.0852" y="49.9414" width="142.061" height="162.736" filterUnits="userSpaceOnUse" color-interpolation-filters="sRGB">
<feFlood flood-opacity="0" result="BackgroundImageFix"/>
<feColorMatrix in="SourceAlpha" type="matrix" values="0 0 0 0 0 0 0 0 0 0 0 0 0 0 0 0 0 0 127 0" result="hardAlpha"/>
<feOffset/>
<feGaussianBlur stdDeviation="2"/>
<feComposite in2="hardAlpha" operator="out"/>
<feColorMatrix type="matrix" values="0 0 0 0 0.913725 0 0 0 0 0.921569 0 0 0 0 0.937255 0 0 0 1 0"/>
<feBlend mode="normal" in2="BackgroundImageFix" result="effect1_dropShadow_8814_26391"/>
<feBlend mode="normal" in="SourceGraphic" in2="effect1_dropShadow_8814_26391" result="shape"/>
</filter>
<filter id="filter1_d_8814_26391" x="93.0457" y="82.4727" width="95.7056" height="26.2227" filterUnits="userSpaceOnUse" color-interpolation-filters="sRGB">
<feFlood flood-opacity="0" result="BackgroundImageFix"/>
<feColorMatrix in="SourceAlpha" type="matrix" values="0 0 0 0 0 0 0 0 0 0 0 0 0 0 0 0 0 0 127 0" result="hardAlpha"/>
<feOffset/>
<feGaussianBlur stdDeviation="2"/>
<feComposite in2="hardAlpha" operator="out"/>
<feColorMatrix type="matrix" values="0 0 0 0 0.866667 0 0 0 0 0.878431 0 0 0 0 1 0 0 0 1 0"/>
<feBlend mode="normal" in2="BackgroundImageFix" result="effect1_dropShadow_8814_26391"/>
<feBlend mode="normal" in="SourceGraphic" in2="effect1_dropShadow_8814_26391" result="shape"/>
</filter>
<filter id="filter2_d_8814_26391" x="96.0046" y="106.476" width="67.4749" height="22" filterUnits="userSpaceOnUse" color-interpolation-filters="sRGB">
<feFlood flood-opacity="0" result="BackgroundImageFix"/>
<feColorMatrix in="SourceAlpha" type="matrix" values="0 0 0 0 0 0 0 0 0 0 0 0 0 0 0 0 0 0 127 0" result="hardAlpha"/>
<feOffset/>
<feGaussianBlur stdDeviation="2"/>
<feComposite in2="hardAlpha" operator="out"/>
<feColorMatrix type="matrix" values="0 0 0 0 0.866667 0 0 0 0 0.878431 0 0 0 0 1 0 0 0 1 0"/>
<feBlend mode="normal" in2="BackgroundImageFix" result="effect1_dropShadow_8814_26391"/>
<feBlend mode="normal" in="SourceGraphic" in2="effect1_dropShadow_8814_26391" result="shape"/>
</filter>
<filter id="filter3_d_8814_26391" x="98.9634" y="124.102" width="81.8716" height="24.1533" filterUnits="userSpaceOnUse" color-interpolation-filters="sRGB">
<feFlood flood-opacity="0" result="BackgroundImageFix"/>
<feColorMatrix in="SourceAlpha" type="matrix" values="0 0 0 0 0 0 0 0 0 0 0 0 0 0 0 0 0 0 127 0" result="hardAlpha"/>
<feOffset/>
<feGaussianBlur stdDeviation="2"/>
<feComposite in2="hardAlpha" operator="out"/>
<feColorMatrix type="matrix" values="0 0 0 0 0.866667 0 0 0 0 0.878431 0 0 0 0 1 0 0 0 1 0"/>
<feBlend mode="normal" in2="BackgroundImageFix" result="effect1_dropShadow_8814_26391"/>
<feBlend mode="normal" in="SourceGraphic" in2="effect1_dropShadow_8814_26391" result="shape"/>
</filter>
<filter id="filter4_d_8814_26391" x="101.922" y="144.699" width="76.4075" height="23.3359" filterUnits="userSpaceOnUse" color-interpolation-filters="sRGB">
<feFlood flood-opacity="0" result="BackgroundImageFix"/>
<feColorMatrix in="SourceAlpha" type="matrix" values="0 0 0 0 0 0 0 0 0 0 0 0 0 0 0 0 0 0 127 0" result="hardAlpha"/>
<feOffset/>
<feGaussianBlur stdDeviation="2"/>
<feComposite in2="hardAlpha" operator="out"/>
<feColorMatrix type="matrix" values="0 0 0 0 0.866667 0 0 0 0 0.878431 0 0 0 0 1 0 0 0 1 0"/>
<feBlend mode="normal" in2="BackgroundImageFix" result="effect1_dropShadow_8814_26391"/>
<feBlend mode="normal" in="SourceGraphic" in2="effect1_dropShadow_8814_26391" result="shape"/>
</filter>
<filter id="filter5_d_8814_26391" x="104.881" y="163.661" width="81.8716" height="24.1533" filterUnits="userSpaceOnUse" color-interpolation-filters="sRGB">
<feFlood flood-opacity="0" result="BackgroundImageFix"/>
<feColorMatrix in="SourceAlpha" type="matrix" values="0 0 0 0 0 0 0 0 0 0 0 0 0 0 0 0 0 0 127 0" result="hardAlpha"/>
<feOffset/>
<feGaussianBlur stdDeviation="2"/>
<feComposite in2="hardAlpha" operator="out"/>
<feColorMatrix type="matrix" values="0 0 0 0 0.866667 0 0 0 0 0.878431 0 0 0 0 1 0 0 0 1 0"/>
<feBlend mode="normal" in2="BackgroundImageFix" result="effect1_dropShadow_8814_26391"/>
<feBlend mode="normal" in="SourceGraphic" in2="effect1_dropShadow_8814_26391" result="shape"/>
</filter>
<filter id="filter6_d_8814_26391" x="186.955" y="122.238" width="54.1299" height="54.1299" filterUnits="userSpaceOnUse" color-interpolation-filters="sRGB">
<feFlood flood-opacity="0" result="BackgroundImageFix"/>
<feColorMatrix in="SourceAlpha" type="matrix" values="0 0 0 0 0 0 0 0 0 0 0 0 0 0 0 0 0 0 127 0" result="hardAlpha"/>
<feOffset/>
<feGaussianBlur stdDeviation="2"/>
<feComposite in2="hardAlpha" operator="out"/>
<feColorMatrix type="matrix" values="0 0 0 0 0.913725 0 0 0 0 0.921569 0 0 0 0 0.937255 0 0 0 1 0"/>
<feBlend mode="normal" in2="BackgroundImageFix" result="effect1_dropShadow_8814_26391"/>
<feBlend mode="normal" in="SourceGraphic" in2="effect1_dropShadow_8814_26391" result="shape"/>
</filter>
<clipPath id="clip0_8814_26391">
<rect width="277" height="218" fill="white"/>
</clipPath>
</defs>
</svg>
