<svg width="20" height="20" viewBox="0 0 20 20" fill="none" xmlns="http://www.w3.org/2000/svg">
<path d="M15.5 5.31445C15.7761 5.31445 15.9999 5.53813 16 5.81445C16 6.09089 15.7761 6.31543 15.5 6.31543H6V12.4961C6.0001 13.8783 7.11935 14.999 8.5 14.999H11.5C12.8806 14.9989 13.9999 13.8782 14 12.4961V7.40039C14 7.12394 14.2239 6.89941 14.5 6.89941C14.7761 6.89949 15 7.12399 15 7.40039V12.4961C14.9999 14.4311 13.4329 15.9999 11.5 16H8.5C6.56707 16 5.0001 14.4312 5 12.4961V6.31543H4.5C4.22386 6.31543 4 6.09089 4 5.81445C4.00014 5.53813 4.22395 5.31445 4.5 5.31445H15.5ZM8.5 7.69238C8.77601 7.69238 8.99978 7.91613 9 8.19238V12.4707C9 12.7471 8.77614 12.9717 8.5 12.9717C8.22392 12.9716 8 12.7471 8 12.4707V8.19238C8.00022 7.91617 8.22406 7.69246 8.5 7.69238ZM11.5 7.69238C11.776 7.69238 11.9998 7.91613 12 8.19238V12.4707C12 12.7471 11.7761 12.9717 11.5 12.9717C11.2239 12.9716 11 12.7471 11 12.4707V8.19238C11.0002 7.91617 11.2241 7.69246 11.5 7.69238ZM12 4C12.2761 4 12.5 4.22454 12.5 4.50098C12.4998 4.77722 12.276 5.00098 12 5.00098H8C7.72407 5.0009 7.50023 4.77717 7.5 4.50098C7.5 4.22458 7.72392 4.00008 8 4H12Z" fill="#6F717C"/>
</svg>
