<svg width="24" height="24" viewBox="0 0 24 24" fill="none" xmlns="http://www.w3.org/2000/svg">
<g clip-path="url(#paint0_diamond_7707_3525_clip_path)" data-figma-skip-parse="true"><g transform="matrix(0 0.012 -0.012 0 12 12)"><rect x="0" y="0" width="1083.33" height="1083.33" fill="url(#paint0_diamond_7707_3525)" opacity="1" shape-rendering="crispEdges"/><rect x="0" y="0" width="1083.33" height="1083.33" transform="scale(1 -1)" fill="url(#paint0_diamond_7707_3525)" opacity="1" shape-rendering="crispEdges"/><rect x="0" y="0" width="1083.33" height="1083.33" transform="scale(-1 1)" fill="url(#paint0_diamond_7707_3525)" opacity="1" shape-rendering="crispEdges"/><rect x="0" y="0" width="1083.33" height="1083.33" transform="scale(-1)" fill="url(#paint0_diamond_7707_3525)" opacity="1" shape-rendering="crispEdges"/></g></g><path d="M10.4994 4.05521C11.0149 2.66222 12.9851 2.66222 13.5006 4.05521L14.9858 8.06892C15.1478 8.50688 15.4931 8.85217 15.9311 9.01423L19.9448 10.4994C21.3378 11.0149 21.3378 12.9851 19.9448 13.5006L15.9311 14.9858C15.4931 15.1478 15.1478 15.4931 14.9858 15.9311L13.5006 19.9448C12.9851 21.3378 11.0149 21.3378 10.4994 19.9448L9.01423 15.9311C8.85217 15.4931 8.50688 15.1478 8.06892 14.9858L4.05521 13.5006C2.66222 12.9851 2.66222 11.0149 4.05521 10.4994L8.06892 9.01423C8.50688 8.85217 8.85217 8.50688 9.01423 8.06892L10.4994 4.05521Z" data-figma-gradient-fill="{&#34;type&#34;:&#34;GRADIENT_DIAMOND&#34;,&#34;stops&#34;:[{&#34;color&#34;:{&#34;r&#34;:0.33333334326744080,&#34;g&#34;:0.31764706969261169,&#34;b&#34;:0.96078431606292725,&#34;a&#34;:1.0},&#34;position&#34;:0.35576921701431274},{&#34;color&#34;:{&#34;r&#34;:0.86666667461395264,&#34;g&#34;:0.87843137979507446,&#34;b&#34;:1.0,&#34;a&#34;:1.0},&#34;position&#34;:1.0}],&#34;stopsVar&#34;:[{&#34;color&#34;:{&#34;r&#34;:0.33333334326744080,&#34;g&#34;:0.31764706969261169,&#34;b&#34;:0.96078431606292725,&#34;a&#34;:1.0},&#34;position&#34;:0.35576921701431274},{&#34;color&#34;:{&#34;r&#34;:0.86666667461395264,&#34;g&#34;:0.87843137979507446,&#34;b&#34;:1.0,&#34;a&#34;:1.0},&#34;position&#34;:1.0}],&#34;transform&#34;:{&#34;m00&#34;:1.4695762231022014e-15,&#34;m01&#34;:-24.0,&#34;m02&#34;:24.0,&#34;m10&#34;:24.0,&#34;m11&#34;:1.4695762231022014e-15,&#34;m12&#34;:-1.4695762231022014e-15},&#34;opacity&#34;:1.0,&#34;blendMode&#34;:&#34;NORMAL&#34;,&#34;visible&#34;:true}"/>
<defs>
<clipPath id="paint0_diamond_7707_3525_clip_path"><path d="M10.4994 4.05521C11.0149 2.66222 12.9851 2.66222 13.5006 4.05521L14.9858 8.06892C15.1478 8.50688 15.4931 8.85217 15.9311 9.01423L19.9448 10.4994C21.3378 11.0149 21.3378 12.9851 19.9448 13.5006L15.9311 14.9858C15.4931 15.1478 15.1478 15.4931 14.9858 15.9311L13.5006 19.9448C12.9851 21.3378 11.0149 21.3378 10.4994 19.9448L9.01423 15.9311C8.85217 15.4931 8.50688 15.1478 8.06892 14.9858L4.05521 13.5006C2.66222 12.9851 2.66222 11.0149 4.05521 10.4994L8.06892 9.01423C8.50688 8.85217 8.85217 8.50688 9.01423 8.06892L10.4994 4.05521Z"/></clipPath><linearGradient id="paint0_diamond_7707_3525" x1="0" y1="0" x2="500" y2="500" gradientUnits="userSpaceOnUse">
<stop offset="0.355769" stop-color="#5551F5"/>
<stop offset="1" stop-color="#DDE0FF"/>
</linearGradient>
</defs>
</svg>
