<svg width="20" height="20" viewBox="0 0 20 20" fill="none" xmlns="http://www.w3.org/2000/svg">
<mask id="mask0_7410_31164" style="mask-type:alpha" maskUnits="userSpaceOnUse" x="0" y="0" width="20" height="20">
<rect width="20" height="20" fill="#D9D9D9"/>
</mask>
<g mask="url(#mask0_7410_31164)">
<path d="M9.60384 11.6042L6.64301 8.64187C6.60217 8.6009 6.57155 8.5566 6.55113 8.50896C6.53072 8.46132 6.52051 8.41319 6.52051 8.36458C6.52051 8.26736 6.55488 8.18229 6.62363 8.10938C6.69238 8.03646 6.78301 8 6.89551 8H13.1038C13.2163 8 13.307 8.0375 13.3757 8.1125C13.4445 8.1875 13.4788 8.275 13.4788 8.375C13.4788 8.38889 13.438 8.47757 13.3563 8.64104L10.3955 11.6042C10.34 11.6597 10.2775 11.7014 10.208 11.7292C10.1386 11.7569 10.0691 11.7708 9.99967 11.7708C9.93023 11.7708 9.86079 11.7569 9.79134 11.7292C9.7219 11.7014 9.6594 11.6597 9.60384 11.6042Z" fill="#C5C6CD"/>
</g>
</svg>
