<svg width="24" height="24" viewBox="0 0 24 24" fill="none" xmlns="http://www.w3.org/2000/svg">
<mask id="mask0_8562_12638" style="mask-type:alpha" maskUnits="userSpaceOnUse" x="0" y="0" width="24" height="24">
<rect width="24" height="24" fill="#D9D9D9"/>
</mask>
<g mask="url(#mask0_8562_12638)">
<path d="M3.5 24.0003C3.091 24.0003 2.73875 23.8541 2.44325 23.5618C2.14775 23.2695 2 22.9156 2 22.5003C2 22.0913 2.14775 21.739 2.44325 21.4435C2.73875 21.148 3.091 21.0003 3.5 21.0003H20.5C20.909 21.0003 21.2613 21.1465 21.5568 21.4388C21.8523 21.7311 22 22.085 22 22.5003C22 22.9093 21.8523 23.2615 21.5568 23.557C21.2613 23.8525 20.909 24.0003 20.5 24.0003H3.5ZM6 16.4138H7.2365L15.5365 8.12905L14.9078 7.4908L14.2848 6.8773L6 15.1773V16.4138ZM4.5 17.0098V14.9158C4.5 14.7953 4.52017 14.6805 4.5605 14.5715C4.601 14.4625 4.668 14.3612 4.7615 14.2675L15.7098 3.34455C15.8546 3.19971 16.019 3.09013 16.203 3.0158C16.3868 2.94146 16.5768 2.9043 16.773 2.9043C16.9757 2.9043 17.1683 2.94146 17.351 3.0158C17.5337 3.09013 17.7026 3.20488 17.8577 3.36005L19.0595 4.5773C19.2147 4.72213 19.3268 4.88746 19.396 5.0733C19.4653 5.2593 19.5 5.45355 19.5 5.65605C19.5 5.84205 19.4653 6.02696 19.396 6.2108C19.3268 6.3948 19.2147 6.56438 19.0595 6.71955L8.1365 17.6425C8.04283 17.7362 7.94158 17.8048 7.83275 17.8483C7.72375 17.892 7.609 17.9138 7.4885 17.9138H5.404C5.14617 17.9138 4.93108 17.8275 4.75875 17.655C4.58625 17.4827 4.5 17.2676 4.5 17.0098ZM15.5365 8.12905L14.9078 7.4908L14.2848 6.8773L15.5365 8.12905Z" fill="#6F717C"/>
</g>
</svg>
