<svg width="20" height="20" viewBox="0 0 20 20" fill="none" xmlns="http://www.w3.org/2000/svg">
<mask id="mask0_7629_1665" style="mask-type:alpha" maskUnits="userSpaceOnUse" x="0" y="0" width="20" height="20">
<rect width="20" height="20" fill="#D9D9D9"/>
</mask>
<g mask="url(#mask0_7629_1665)">
<path d="M9.37467 10.6247H5.20801C5.03092 10.6247 4.88252 10.5647 4.7628 10.4449C4.64294 10.325 4.58301 10.1765 4.58301 9.99947C4.58301 9.82224 4.64294 9.67384 4.7628 9.55426C4.88252 9.43454 5.03092 9.37467 5.20801 9.37467H9.37467V5.20801C9.37467 5.03092 9.43461 4.88252 9.55447 4.7628C9.67433 4.64294 9.8228 4.58301 9.99988 4.58301C10.1771 4.58301 10.3255 4.64294 10.4451 4.7628C10.5648 4.88252 10.6247 5.03092 10.6247 5.20801V9.37467H14.7913C14.9684 9.37467 15.1168 9.43461 15.2365 9.55447C15.3564 9.67433 15.4163 9.8228 15.4163 9.99988C15.4163 10.1771 15.3564 10.3255 15.2365 10.4451C15.1168 10.5648 14.9684 10.6247 14.7913 10.6247H10.6247V14.7913C10.6247 14.9684 10.5647 15.1168 10.4449 15.2365C10.325 15.3564 10.1765 15.4163 9.99947 15.4163C9.82224 15.4163 9.67384 15.3564 9.55426 15.2365C9.43454 15.1168 9.37467 14.9684 9.37467 14.7913V10.6247Z" fill="#6F717C"/>
</g>
</svg>
