<svg width="14" height="16" viewBox="0 0 14 16" fill="none" xmlns="http://www.w3.org/2000/svg">
<path d="M6.70067 16C6.51454 16 6.33915 15.9678 6.1745 15.9034C6.00984 15.8389 5.84877 15.7423 5.69128 15.6134C5.11857 15.1123 4.49933 14.5253 3.83356 13.8523C3.16779 13.1794 2.54855 12.4564 1.97584 11.6832C1.40313 10.9101 0.930649 10.1047 0.558389 9.26711C0.18613 8.42953 0 7.59553 0 6.7651C0 4.84653 0.637136 3.23937 1.91141 1.94362C3.18568 0.647875 4.7821 0 6.70067 0C8.60492 0 10.1978 0.647875 11.4792 1.94362C12.7606 3.23937 13.4013 4.84653 13.4013 6.7651C13.4013 7.59553 13.2116 8.43311 12.8322 9.27785C12.4528 10.1226 11.9803 10.9315 11.4148 11.7047C10.8492 12.4779 10.2336 13.1973 9.56779 13.8631C8.90201 14.5289 8.28277 15.1123 7.71007 15.6134C7.55257 15.7423 7.3915 15.8389 7.22685 15.9034C7.06219 15.9678 6.8868 16 6.70067 16ZM6.70067 8.24698C7.1302 8.24698 7.4953 8.09664 7.79597 7.79597C8.09664 7.4953 8.24698 7.1302 8.24698 6.70067C8.24698 6.27114 8.09664 5.90604 7.79597 5.60537C7.4953 5.3047 7.1302 5.15436 6.70067 5.15436C6.27114 5.15436 5.90604 5.3047 5.60537 5.60537C5.3047 5.90604 5.15436 6.27114 5.15436 6.70067C5.15436 7.1302 5.3047 7.4953 5.60537 7.79597C5.90604 8.09664 6.27114 8.24698 6.70067 8.24698Z" fill="#6F717C"/>
</svg>
