<svg width="36" height="36" viewBox="0 0 36 36" fill="none" xmlns="http://www.w3.org/2000/svg">
<mask id="mask0_8695_52332" style="mask-type:alpha" maskUnits="userSpaceOnUse" x="6" y="6" width="24" height="24">
<rect x="6" y="6" width="24" height="24" fill="#D9D9D9"/>
</mask>
<g mask="url(#mask0_8695_52332)">
<path d="M12.2305 19.5C11.818 19.5 11.4649 19.3531 11.1712 19.0592C10.8774 18.7656 10.7305 18.4125 10.7305 18C10.7305 17.5875 10.8774 17.2344 11.1712 16.9408C11.4649 16.6469 11.818 16.5 12.2305 16.5C12.643 16.5 12.9961 16.6469 13.29 16.9408C13.5836 17.2344 13.7305 17.5875 13.7305 18C13.7305 18.4125 13.5836 18.7656 13.29 19.0592C12.9961 19.3531 12.643 19.5 12.2305 19.5ZM17.9997 19.5C17.5872 19.5 17.2341 19.3531 16.9405 19.0592C16.6466 18.7656 16.4997 18.4125 16.4997 18C16.4997 17.5875 16.6466 17.2344 16.9405 16.9408C17.2341 16.6469 17.5872 16.5 17.9997 16.5C18.4122 16.5 18.7653 16.6469 19.059 16.9408C19.3528 17.2344 19.4997 17.5875 19.4997 18C19.4997 18.4125 19.3528 18.7656 19.059 19.0592C18.7653 19.3531 18.4122 19.5 17.9997 19.5ZM23.769 19.5C23.3565 19.5 23.0033 19.3531 22.7095 19.0592C22.4158 18.7656 22.269 18.4125 22.269 18C22.269 17.5875 22.4158 17.2344 22.7095 16.9408C23.0033 16.6469 23.3565 16.5 23.769 16.5C24.1815 16.5 24.5346 16.6469 24.8282 16.9408C25.1221 17.2344 25.269 17.5875 25.269 18C25.269 18.4125 25.1221 18.7656 24.8282 19.0592C24.5346 19.3531 24.1815 19.5 23.769 19.5Z" fill="#6F717C"/>
</g>
</svg>
