<svg width="24" height="24" viewBox="0 0 24 24" fill="none" xmlns="http://www.w3.org/2000/svg">
<path d="M12 4.34961C16.225 4.34961 19.6504 7.77502 19.6504 12C19.6504 16.225 16.225 19.6504 12 19.6504C7.77502 19.6504 4.34961 16.225 4.34961 12C4.34961 7.77502 7.77502 4.34961 12 4.34961Z" stroke="#999BA5" stroke-width="1.2" stroke-miterlimit="10"/>
<path d="M12.2153 15.2216C12.0682 15.1481 11.9211 15.1113 11.774 15.1113C11.6269 15.1113 11.4614 15.1481 11.3143 15.2216C11.1672 15.2952 11.0753 15.4055 10.9834 15.5526C10.9098 15.6997 10.873 15.8468 10.873 15.9939C10.873 16.141 10.9098 16.3064 10.9834 16.4352C11.0569 16.5639 11.1672 16.6742 11.3143 16.7661C11.4614 16.858 11.6085 16.8948 11.774 16.8948C11.9395 16.8948 12.0865 16.858 12.2153 16.7661C12.3623 16.6742 12.4727 16.5639 12.5462 16.4352C12.6198 16.3064 12.6749 16.141 12.6749 15.9939C12.6749 15.8468 12.6381 15.6813 12.5462 15.5526C12.4727 15.4055 12.3623 15.3136 12.2153 15.2216Z" fill="#999BA5"/>
<path d="M14.4018 8.67673C14.1811 8.309 13.8502 8.01482 13.4273 7.81257C13.0044 7.61032 12.5264 7.5 11.9931 7.5C11.4783 7.5 11.0371 7.59193 10.6142 7.79418C10.2097 7.99643 9.87871 8.27223 9.6213 8.65834C9.36389 9.04446 9.23518 9.48573 9.2168 10.0006H10.5774C10.5958 9.70637 10.6693 9.44896 10.8164 9.24671C10.9635 9.04446 11.129 8.87898 11.3312 8.78705C11.5335 8.69512 11.7541 8.63996 11.9931 8.63996C12.2506 8.63996 12.4896 8.69512 12.6918 8.80544C12.8941 8.91575 13.0779 9.06284 13.1883 9.2651C13.2986 9.46735 13.3721 9.68798 13.3721 9.94539C13.3721 10.258 13.2986 10.5338 13.1147 10.7728C12.9492 11.0118 12.7286 11.2324 12.4344 11.3979C12.1219 11.5818 11.8828 11.784 11.6806 11.9863C11.4967 12.1885 11.3496 12.4459 11.2577 12.7769C11.1658 13.1079 11.1106 13.5307 11.0922 14.0823V14.1743H12.3793V14.0823C12.3793 13.733 12.416 13.4572 12.508 13.2182C12.5815 12.9975 12.6918 12.7953 12.8389 12.6114C12.986 12.4459 13.1883 12.2805 13.4457 12.115C13.8686 11.8576 14.1811 11.545 14.4018 11.1957C14.6224 10.8463 14.7327 10.4234 14.7327 9.92701C14.7327 9.43057 14.6224 9.02607 14.3834 8.65834L14.4018 8.67673Z" fill="#999BA5"/>
</svg>
