<svg width="20" height="20" viewBox="0 0 20 20" fill="none" xmlns="http://www.w3.org/2000/svg">
<circle cx="10" cy="10" r="9.5" stroke="#999BA5"/>
<path d="M9.40587 15.1102V7.68482H10.5854V15.1102H9.40587ZM10.0053 6.45692C9.85707 6.45692 9.71849 6.42147 9.58957 6.35057C9.46066 6.27967 9.35914 6.18459 9.28502 6.06535C9.21089 5.9461 9.17383 5.81558 9.17383 5.67377C9.17383 5.53197 9.21089 5.40144 9.28502 5.2822C9.35914 5.16296 9.46066 5.06788 9.58957 4.99698C9.71849 4.92608 9.85707 4.89062 10.0053 4.89062C10.1503 4.89062 10.2857 4.92608 10.4114 4.99698C10.5403 5.06788 10.6418 5.16296 10.716 5.2822C10.7901 5.40144 10.8271 5.53197 10.8271 5.67377C10.8271 5.81558 10.7901 5.9461 10.716 6.06535C10.6418 6.18459 10.5403 6.27967 10.4114 6.35057C10.2857 6.42147 10.1503 6.45692 10.0053 6.45692Z" fill="#999BA5"/>
</svg>
