<svg width="20" height="20" viewBox="0 0 20 20" fill="none" xmlns="http://www.w3.org/2000/svg">
<path fill-rule="evenodd" clip-rule="evenodd" d="M4.6973 1.66797C3.89361 1.66797 3.12284 1.98723 2.55455 2.55552C1.98626 3.12382 1.66699 3.89459 1.66699 4.69827V15.3043C1.66699 16.108 1.98626 16.8788 2.55455 17.4471C3.12284 18.0154 3.89361 18.3346 4.6973 18.3346H15.3034C16.107 18.3346 16.8778 18.0154 17.4461 17.4471C18.0144 16.8788 18.3337 16.108 18.3337 15.3043V4.69827C18.3337 3.89459 18.0144 3.12382 17.4461 2.55552C16.8778 1.98723 16.107 1.66797 15.3034 1.66797H4.6973ZM3.93972 9.17479C3.93972 6.38464 6.71017 4.21645 10.0003 4.21645C13.2905 4.21645 16.0609 6.38464 16.0609 9.17479C16.0609 11.9649 13.2905 14.1331 10.0003 14.1331C9.74581 14.1333 9.49145 14.1207 9.2382 14.0952L6.56396 15.7452C6.51887 15.773 6.46673 15.7873 6.41378 15.7862C6.36082 15.7851 6.30929 15.7689 6.26534 15.7393C6.22139 15.7097 6.18689 15.6681 6.16596 15.6195C6.14502 15.5708 6.13854 15.5172 6.14729 15.4649L6.52305 13.2377C4.97836 12.3513 3.93972 10.8733 3.93972 9.17479ZM5.86775 7.69373C5.76729 7.69373 5.67094 7.73363 5.59991 7.80467C5.52887 7.87571 5.48896 7.97205 5.48896 8.07251C5.48896 8.17298 5.52887 8.26932 5.59991 8.34036C5.67094 8.41139 5.76729 8.4513 5.86775 8.4513H6.31548V10.5521C6.31548 10.6525 6.35538 10.7489 6.42642 10.8199C6.49746 10.8909 6.5938 10.9308 6.69426 10.9308C6.79473 10.9308 6.89107 10.8909 6.96211 10.8199C7.03314 10.7489 7.07305 10.6525 7.07305 10.5521V8.4513H7.52078C7.62124 8.4513 7.71759 8.41139 7.78862 8.34036C7.85966 8.26932 7.89957 8.17298 7.89957 8.07251C7.89957 7.97205 7.85966 7.87571 7.78862 7.80467C7.71759 7.73363 7.62124 7.69373 7.52078 7.69373H5.86775ZM9.11396 7.93615C9.0863 7.86502 9.03779 7.8039 8.97479 7.76081C8.9118 7.71771 8.83726 7.69466 8.76093 7.69466C8.68461 7.69466 8.61006 7.71771 8.54707 7.76081C8.48407 7.8039 8.43557 7.86502 8.4079 7.93615L7.44351 10.4149C7.40926 10.5081 7.41295 10.611 7.45379 10.7015C7.49464 10.7919 7.56936 10.8628 7.66189 10.8987C7.75442 10.9347 7.85736 10.9328 7.94857 10.8937C8.03977 10.8545 8.11195 10.781 8.14957 10.6892L8.27002 10.3801H9.25184L9.37154 10.6892C9.3889 10.7364 9.4155 10.7797 9.44979 10.8166C9.48407 10.8534 9.52535 10.883 9.57122 10.9037C9.61709 10.9244 9.66662 10.9358 9.71693 10.9371C9.76723 10.9385 9.8173 10.9298 9.86421 10.9116C9.91112 10.8934 9.95393 10.866 9.99014 10.831C10.0263 10.7961 10.0552 10.7543 10.0751 10.708C10.095 10.6618 10.1054 10.6121 10.1058 10.5617C10.1063 10.5114 10.0967 10.4615 10.0776 10.4149L9.11396 7.93615ZM8.76093 9.11797L8.95714 9.62251H8.56472L8.76093 9.11797ZM10.9299 8.07251C10.9299 7.97205 10.89 7.87571 10.8189 7.80467C10.7479 7.73363 10.6515 7.69373 10.5511 7.69373C10.4506 7.69373 10.3543 7.73363 10.2832 7.80467C10.2122 7.87571 10.1723 7.97205 10.1723 8.07251V10.5521C10.1723 10.6525 10.2122 10.7489 10.2832 10.8199C10.3543 10.8909 10.4506 10.9308 10.5511 10.9308H11.6534C11.7538 10.9308 11.8502 10.8909 11.9212 10.8199C11.9922 10.7489 12.0321 10.6525 12.0321 10.5521C12.0321 10.4516 11.9922 10.3553 11.9212 10.2842C11.8502 10.2132 11.7538 10.1733 11.6534 10.1733H10.9299V8.07251ZM12.4799 7.69373C12.5803 7.69373 12.6767 7.73363 12.7477 7.80467C12.8188 7.87571 12.8587 7.97205 12.8587 8.07251V8.81115L13.864 7.80509C13.8989 7.76891 13.9407 7.74005 13.9869 7.7202C14.0331 7.70035 14.0828 7.6899 14.1331 7.68946C14.1834 7.68903 14.2333 7.69861 14.2799 7.71766C14.3264 7.7367 14.3687 7.76483 14.4043 7.8004C14.4398 7.83596 14.468 7.87825 14.487 7.9248C14.506 7.97136 14.5156 8.02123 14.5152 8.07153C14.5148 8.12182 14.5043 8.17153 14.4845 8.21774C14.4646 8.26396 14.4357 8.30575 14.3996 8.3407L13.5374 9.20282L14.4276 10.3157C14.4867 10.3944 14.5129 10.493 14.5006 10.5906C14.4882 10.6883 14.4384 10.7773 14.3616 10.8388C14.2848 10.9003 14.1871 10.9296 14.0891 10.9203C13.9911 10.9111 13.9006 10.864 13.8367 10.7892L12.9981 9.74221L12.8579 9.88236V10.5521C12.8579 10.6525 12.818 10.7489 12.747 10.8199C12.6759 10.8909 12.5796 10.9308 12.4791 10.9308C12.3787 10.9308 12.2823 10.8909 12.2113 10.8199C12.1402 10.7489 12.1003 10.6525 12.1003 10.5521V8.07251C12.1003 7.97205 12.1402 7.87571 12.2113 7.80467C12.2823 7.73363 12.3794 7.69373 12.4799 7.69373Z" fill="#6F717C"/>
</svg>
