<svg width="35" height="26" viewBox="0 0 35 26" fill="none" xmlns="http://www.w3.org/2000/svg">
<path d="M1.2002 22.1357V3.26471C1.2002 2.12451 2.12451 1.2002 3.26471 1.2002H31.1357C32.2759 1.2002 33.2002 2.12451 33.2002 3.26471V22.1357C33.2002 23.2759 32.2759 24.2002 31.1357 24.2002H3.26471C2.12451 24.2002 1.2002 23.2759 1.2002 22.1357Z" stroke="#6F717C" stroke-width="2.4"/>
<path d="M5.2002 20.2002L9.76949 15.3347C9.84085 15.2588 9.95862 15.2503 10.0401 15.3154L12.8025 17.5215C12.9112 17.6083 13.073 17.5605 13.117 17.4286L16.0225 8.73213C16.0821 8.5538 16.3325 8.54876 16.3992 8.72455L18.2599 13.6285C18.2775 13.6746 18.3114 13.7127 18.3554 13.7353L21.0445 15.12C21.1336 15.1659 21.243 15.1387 21.3002 15.0564L25.0263 9.7002L26.9415 6.48828C27.019 6.35819 27.2074 6.35819 27.285 6.48829L29.2002 9.7002" stroke="#6F717C" stroke-width="2.4" stroke-linecap="round"/>
</svg>
