<svg width="16" height="16" viewBox="0 0 16 16" fill="none" xmlns="http://www.w3.org/2000/svg">
<mask id="mask0_8221_14499" style="mask-type:alpha" maskUnits="userSpaceOnUse" x="0" y="0" width="16" height="16">
<rect width="16" height="16" fill="#D9D9D9"/>
</mask>
<g mask="url(#mask0_8221_14499)">
<path d="M8.00048 16C7.81435 16 7.63895 15.9678 7.4743 15.9034C7.30965 15.8389 7.14857 15.7423 6.99108 15.6134C6.41837 15.1123 5.79913 14.5253 5.13336 13.8523C4.46759 13.1794 3.84835 12.4564 3.27564 11.6832C2.70294 10.9101 2.23045 10.1047 1.85819 9.26711C1.48593 8.42953 1.2998 7.59553 1.2998 6.7651C1.2998 4.84653 1.93694 3.23937 3.21121 1.94362C4.48549 0.647875 6.08191 0 8.00048 0C9.90473 0 11.4976 0.647875 12.779 1.94362C14.0604 3.23937 14.7011 4.84653 14.7011 6.7651C14.7011 7.59553 14.5114 8.43311 14.132 9.27785C13.7526 10.1226 13.2801 10.9315 12.7146 11.7047C12.149 12.4779 11.5334 13.1973 10.8676 13.8631C10.2018 14.5289 9.58258 15.1123 9.00987 15.6134C8.85238 15.7423 8.6913 15.8389 8.52665 15.9034C8.362 15.9678 8.18661 16 8.00048 16ZM8.00048 8.24698C8.43001 8.24698 8.79511 8.09664 9.09578 7.79597C9.39645 7.4953 9.54678 7.1302 9.54678 6.70067C9.54678 6.27114 9.39645 5.90604 9.09578 5.60537C8.79511 5.3047 8.43001 5.15436 8.00048 5.15436C7.57095 5.15436 7.20584 5.3047 6.90517 5.60537C6.6045 5.90604 6.45417 6.27114 6.45417 6.70067C6.45417 7.1302 6.6045 7.4953 6.90517 7.79597C7.20584 8.09664 7.57095 8.24698 8.00048 8.24698Z" fill="#999BA5"/>
</g>
</svg>
