<svg width="117" height="36" viewBox="0 0 117 36" fill="none" xmlns="http://www.w3.org/2000/svg">
<g clip-path="url(#clip0_8728_27188)">
<path d="M107.634 12.7861H115.537V18.3857H107.634V23.375C107.634 27.321 110.833 30.5205 114.779 30.5205H117V36.1201H114.779C107.74 36.1201 102.034 30.4138 102.034 23.375V18.3857H96.4902V12.7861H102.034V0H107.634V12.7861ZM94.1465 36L88.5469 36.001V20.625L94.1465 20.624V36ZM5.47461 15.2803H9.54297C14.624 15.2803 18.7432 11.1611 18.7432 6.08008V5.28906H24.3428V6.08008C24.3428 12.3666 20.4231 17.7367 14.8945 19.8818L24.7871 36H18.2129L8.95117 20.8799H5.47461V36H-0.125V0H5.47461V15.2803ZM35.3555 12.8994C41.5978 13.0576 46.6094 18.1677 46.6094 24.4482L46.6055 24.7461C46.4473 30.9883 41.3379 35.9998 35.0576 36L34.7588 35.9961C28.6156 35.8403 23.6644 30.8893 23.5088 24.7461L23.5049 24.4482C23.5049 18.068 28.6774 12.8955 35.0576 12.8955L35.3555 12.8994ZM64.9639 18.3857H61.7656C57.8196 18.3857 54.6201 21.5852 54.6201 25.5312V36H49.0205V12.8955H54.6201V14.9766C56.6581 13.5941 59.1175 12.7861 61.7656 12.7861H64.9639V18.3857ZM86.2168 5.47461H83.9961C80.0501 5.47461 76.8506 8.67409 76.8506 12.6201V12.7861H86.2168V18.3857H76.8506V36H71.251V18.3857H67.1699V12.7861H71.251V12.6201C71.251 5.5813 76.9573 -0.125 83.9961 -0.125H86.2168V5.47461ZM35.0576 18.4951C31.7702 18.4951 29.1045 21.1608 29.1045 24.4482C29.1047 27.7355 31.7703 30.4004 35.0576 30.4004C38.3447 30.4002 41.0096 27.7354 41.0098 24.4482C41.0098 21.161 38.3449 18.4953 35.0576 18.4951ZM94.1465 18.3955H88.5469V12.7627H94.1465V18.3955Z" fill="#5551F5"/>
</g>
<defs>
<clipPath id="clip0_8728_27188">
<rect width="117" height="36" fill="white"/>
</clipPath>
</defs>
</svg>
