<svg width="116" height="36" viewBox="0 0 116 36" fill="none" xmlns="http://www.w3.org/2000/svg">
<path d="M5.7168 16.5723H9.49414C14.2301 16.5723 18.0691 12.7329 18.0693 7.99707V6.28418H23.7861V7.99707C23.786 14.0318 20.0458 19.1923 14.7568 21.2881L23.7871 36H17.2109L8.8125 22.2891H5.7168V35.999H0V0.00878906H5.7168V16.5723Z" fill="#5551F5"/>
<path d="M34.4453 13.2949C40.7146 13.295 45.7966 18.3773 45.7969 24.6465L45.7959 24.7939C45.7172 30.9956 40.6657 35.9989 34.4453 35.999L34.2988 35.998C28.097 35.9195 23.0928 30.8669 23.0928 24.6465C23.093 18.3773 28.176 13.295 34.4453 13.2949ZM34.4453 19.0117C31.3334 19.0118 28.8108 21.5346 28.8105 24.6465C28.8105 27.7586 31.3332 30.2822 34.4453 30.2822C37.5574 30.2821 40.0801 27.7585 40.0801 24.6465C40.0798 21.5347 37.5572 19.0118 34.4453 19.0117Z" fill="#5551F5"/>
<path d="M64.3594 13.1582V18.875H62.6465C57.9105 18.875 54.0705 22.7143 54.0703 27.4502V35.999H48.3535V13.2949H54.0703V16.0166C56.4592 14.2221 59.4286 13.1582 62.6465 13.1582H64.3594Z" fill="#5551F5"/>
<path d="M93.5254 36H87.8086V21.3799H93.5254V36ZM93.5254 19.0117H87.8086V13.2949H93.5254V19.0117Z" fill="#5551F5"/>
<path d="M85.6191 5.7168H84.8838C80.5323 5.7168 76.9408 8.95841 76.3857 13.1582H85.6191V18.875H76.3076V35.999H70.5908V18.875H66.5674V13.1582H70.6357C71.2137 5.79499 77.372 0 84.8838 0H85.6191V5.7168Z" fill="#5551F5"/>
<path d="M115.84 30.2822H115.104C110.369 30.2822 106.529 26.4429 106.529 21.707V19.0127H114.769V13.2959H106.529V0H100.812V13.2959H95.7168V19.0127H100.812V21.707C100.813 29.6002 107.211 35.999 115.104 35.999H115.84V30.2822Z" fill="#5551F5"/>
</svg>
