<svg width="35" height="29" viewBox="0 0 35 29" fill="none" xmlns="http://www.w3.org/2000/svg">
<path d="M16.6965 8.56559C10.6705 4.5687 4.60578 5.95145 1.77657 7.40408C1.41044 7.59206 1.2002 7.97797 1.2002 8.38953V25.021C1.2002 25.9771 2.29498 26.5608 3.16575 26.1661C7.61463 24.1497 12.2438 25.2808 15.2135 26.7163C16.0814 27.1358 17.2002 26.5366 17.2002 25.5726V9.52236C17.2002 9.13961 17.0155 8.77716 16.6965 8.56559Z" stroke="#6F717C" stroke-width="2.4" stroke-linecap="round"/>
<path d="M19.5706 7.1258C18.6168 7.49888 18.0391 8.04841 17.538 8.56432C17.3212 8.78748 17.2002 9.08735 17.2002 9.39845V25.5731C17.2002 26.5371 18.319 27.1364 19.1869 26.7168C22.1566 25.2813 26.7858 24.1502 31.2346 26.1666C32.1054 26.5613 33.2002 25.9776 33.2002 25.0216V8.39008C33.2002 7.97851 32.9892 7.59213 32.6397 7.37478C32.0811 7.02739 31.6069 6.79546 30.2372 6.5332" stroke="#6F717C" stroke-width="2.4" stroke-linecap="round"/>
<path d="M23.126 14.2799V2.97797C23.126 1.99613 23.9219 1.2002 24.9038 1.2002C25.8856 1.2002 26.6815 1.99613 26.6815 2.97797V14.1927C26.6815 14.6586 26.5442 15.1142 26.2867 15.5026L25.1941 17.1504C24.9989 17.4449 24.5617 17.43 24.387 17.1229L23.4362 15.4523C23.2329 15.095 23.126 14.691 23.126 14.2799Z" stroke="#6F717C" stroke-width="2.4" stroke-linecap="round"/>
</svg>
