<svg width="26" height="34" viewBox="0 0 26 34" fill="none" xmlns="http://www.w3.org/2000/svg">
<path d="M1.2002 29.9353V8.25788C1.2002 7.11767 2.12451 6.19336 3.26471 6.19336H21.8454C22.9856 6.19336 23.9099 7.11767 23.9099 8.25788V29.9353C23.9099 31.0755 22.9856 31.9998 21.8454 31.9998H3.26471C2.12451 31.9998 1.2002 31.0755 1.2002 29.9353Z" stroke="#6F717C" stroke-width="2.4"/>
<path d="M12.9688 0C14.5865 0.000257695 15.9626 1.0344 16.4727 2.47754H20.3994C21.0834 2.47768 21.6387 3.03276 21.6387 3.7168V8.6709C21.6387 9.35493 21.0834 9.91002 20.3994 9.91016H5.53516C4.85112 9.91006 4.29688 9.35496 4.29688 8.6709V3.7168C4.29688 3.03274 4.85112 2.47763 5.53516 2.47754H9.46387C9.97402 1.03421 11.3507 0 12.9688 0ZM12.9678 2.47754C12.2837 2.47755 11.7295 3.03268 11.7295 3.7168C11.7296 4.40079 12.2838 4.95507 12.9678 4.95508C13.6518 4.95508 14.2059 4.4008 14.2061 3.7168C14.2061 3.03268 13.6519 2.47754 12.9678 2.47754Z" fill="#6F717C"/>
<path d="M5.52734 13.1104H19.7808" stroke="#6F717C" stroke-width="2.4" stroke-linecap="round"/>
<path d="M5.55469 26.5H17.5547" stroke="#6F717C" stroke-width="2.4" stroke-linecap="round"/>
<path d="M5.3291 17.5H12.4558" stroke="#6F717C" stroke-width="2.4" stroke-linecap="round"/>
<path d="M16.0186 17.5H19.5819" stroke="#6F717C" stroke-width="2.4" stroke-linecap="round"/>
</svg>
