<svg width="60" height="60" viewBox="0 0 60 60" fill="none" xmlns="http://www.w3.org/2000/svg">
<mask id="mask0_8982_29937" style="mask-type:alpha" maskUnits="userSpaceOnUse" x="0" y="0" width="60" height="60">
<rect width="60" height="60" fill="#D9D9D9"/>
</mask>
<g mask="url(#mask0_8982_29937)">
<path d="M26.3125 35.6875L20.1875 29.5625C19.8125 29.1875 19.3542 29 18.8125 29C18.2708 29 17.7917 29.2083 17.375 29.625C17 30 16.8125 30.4583 16.8125 31C16.8125 31.5417 17 32 17.375 32.375L25 40.0625C25.375 40.4375 25.8125 40.625 26.3125 40.625C26.8125 40.625 27.25 40.4375 27.625 40.0625L42.5625 25.125C42.9792 24.7083 43.1875 24.2292 43.1875 23.6875C43.1875 23.1458 42.9792 22.6667 42.5625 22.25C42.1458 21.875 41.6562 21.6979 41.0938 21.7188C40.5312 21.7396 40.0625 21.9375 39.6875 22.3125L26.3125 35.6875ZM30 55C26.5833 55 23.3542 54.3438 20.3125 53.0312C17.2708 51.7188 14.6146 49.9271 12.3438 47.6562C10.0729 45.3854 8.28125 42.7292 6.96875 39.6875C5.65625 36.6458 5 33.4167 5 30C5 26.5417 5.65625 23.2917 6.96875 20.25C8.28125 17.2083 10.0729 14.5625 12.3438 12.3125C14.6146 10.0625 17.2708 8.28125 20.3125 6.96875C23.3542 5.65625 26.5833 5 30 5C33.4583 5 36.7083 5.65625 39.75 6.96875C42.7917 8.28125 45.4375 10.0625 47.6875 12.3125C49.9375 14.5625 51.7188 17.2083 53.0312 20.25C54.3438 23.2917 55 26.5417 55 30C55 33.4167 54.3438 36.6458 53.0312 39.6875C51.7188 42.7292 49.9375 45.3854 47.6875 47.6562C45.4375 49.9271 42.7917 51.7188 39.75 53.0312C36.7083 54.3438 33.4583 55 30 55Z" fill="#768AFE"/>
</g>
</svg>
