<svg width="20" height="20" viewBox="0 0 20 20" fill="none" xmlns="http://www.w3.org/2000/svg">
<mask id="mask0_7952_8087" style="mask-type:alpha" maskUnits="userSpaceOnUse" x="0" y="0" width="20" height="20">
<rect width="20" height="20" fill="#D9D9D9"/>
</mask>
<g mask="url(#mask0_7952_8087)">
<path d="M9.37501 10.6247H5.20834C5.03126 10.6247 4.88286 10.5647 4.76314 10.4449C4.64327 10.325 4.58334 10.1765 4.58334 9.99947C4.58334 9.82224 4.64327 9.67384 4.76314 9.55426C4.88286 9.43454 5.03126 9.37467 5.20834 9.37467H9.37501V5.20801C9.37501 5.03092 9.43494 4.88252 9.5548 4.7628C9.67466 4.64294 9.82314 4.58301 10.0002 4.58301C10.1774 4.58301 10.3258 4.64294 10.4454 4.7628C10.5651 4.88252 10.625 5.03092 10.625 5.20801V9.37467H14.7917C14.9688 9.37467 15.1172 9.43461 15.2369 9.55447C15.3567 9.67433 15.4167 9.8228 15.4167 9.99988C15.4167 10.1771 15.3567 10.3255 15.2369 10.4451C15.1172 10.5648 14.9688 10.6247 14.7917 10.6247H10.625V14.7913C10.625 14.9684 10.5651 15.1168 10.4452 15.2365C10.3254 15.3564 10.1769 15.4163 9.9998 15.4163C9.82258 15.4163 9.67418 15.3564 9.55459 15.2365C9.43487 15.1168 9.37501 14.9684 9.37501 14.7913V10.6247Z" fill="#5551F5"/>
</g>
</svg>
