<svg width="259" height="202" viewBox="0 0 259 202" fill="none" xmlns="http://www.w3.org/2000/svg">
<path d="M244.532 166.586C243.978 165.974 243.257 164.939 243.527 164.152C243.738 163.54 248.795 156.332 249.393 155.771C250.851 154.387 251.412 154.773 252.971 155.647C254.531 156.522 258.823 159.707 258.546 161.434C258.364 162.556 252.417 170.616 251.412 170.893C250.231 171.221 245.414 167.577 244.525 166.593L244.532 166.586Z" fill="#DDE0FF"/>
<path d="M235.953 96.0107C235.136 96.12 233.868 96.12 233.38 95.4495C233.001 94.9321 229.94 86.6682 229.816 85.8593C229.51 83.8771 230.137 83.6293 231.748 82.8422C233.358 82.0552 238.416 80.3354 239.676 81.5378C240.5 82.3248 243.75 91.7985 243.408 92.7823C243.007 93.941 237.272 95.8358 235.953 96.0107Z" fill="#DDE0FF"/>
<path d="M164.804 194.9C164.331 194.223 163.74 193.108 164.105 192.364C164.389 191.789 170.277 185.237 170.94 184.749C172.551 183.554 173.061 183.998 174.511 185.055C175.961 186.112 179.831 189.792 179.35 191.468C179.037 192.561 172.157 199.841 171.13 199.994C169.92 200.176 165.577 195.979 164.812 194.893L164.804 194.9Z" fill="#DDE0FF"/>
<path d="M133.681 68.6576C134.155 68.7378 135.044 69.6196 135.831 69.6487C136.735 71.0406 134.796 74.9321 133.681 74.9321H107.68L106.412 70.9896C106.696 70.1661 109.8 68.6576 110.369 68.6576C116.869 68.6576 127.873 67.6811 133.681 68.6576Z" fill="#DDE0FF"/>
<path d="M0.750608 69.7806C2.74008 67.8713 22.8899 68.2794 26.0599 69.5693C29.0988 70.8081 29.1353 73.2276 26.5118 74.4883C24.0267 75.6762 1.4502 75.5741 0 73.1547L0.743321 69.7879L0.750608 69.7806Z" fill="#DDE0FF"/>
<path d="M65.7028 10.2092C67.7141 9.63344 69.3757 10.1144 69.5579 12.3152C68.2024 17.2124 72.2542 30.563 69.6453 33.9153C64.8137 40.1242 63.553 29.0764 63.2979 25.7533C63.0429 22.4302 62.1392 11.2294 65.7028 10.2092Z" fill="#DDE0FF"/>
<path d="M92.0707 85.1601C92.7921 84.1399 95.6342 84.1399 96.946 84.9925C97.9225 85.6265 110.355 98.0662 110.858 98.9115C111.703 100.34 112.257 101.455 111.324 103.058C110.61 104.042 108.861 104.093 107.717 103.911C105.319 103.532 89.8188 88.3447 92.0707 85.1601Z" fill="#DDE0FF"/>
<path d="M26.2697 26.6459C27.8584 26.1941 28.4341 26.6022 29.7094 27.3674C31.2179 28.271 43.49 41.1771 43.6066 42.2557C43.8616 44.6095 41.0924 46.8176 39.1029 45.8411C37.6017 45.1051 24.1709 30.8508 23.9596 29.488C23.7774 28.3002 25.2786 26.9301 26.277 26.6459H26.2697Z" fill="#DDE0FF"/>
<path d="M109.683 26.7182C110.448 27.5052 110.871 28.9846 110.397 30.0704C108.954 33.3716 99.0943 39.4712 97.4327 44.0696C96.2595 45.5854 92.5939 46.0736 91.4716 44.5068C90.721 43.2607 90.9688 42.1093 91.5372 40.8704C91.9088 40.0615 102.534 28.591 103.598 27.8258C105.165 26.689 107.992 24.9765 109.683 26.7182Z" fill="#DDE0FF"/>
<path d="M42.3213 103.31C39.2751 107.945 32.3083 112.375 29.2039 117.571C26.7917 118.774 22.8565 115.633 24.6784 113.024C26.5367 110.364 37.1909 98.7479 39.7342 98.3763C43.0282 97.888 44.1286 100.57 42.3213 103.317V103.31Z" fill="#DDE0FF"/>
<path d="M64.1897 124.067L69.5679 122.719C68.0739 127.521 72.942 145.273 68.6861 147.401C67.214 148.137 64.1897 147.846 64.1897 146.49V124.074V124.067Z" fill="#DDE0FF"/>
<path d="M52.8361 152.85C53.5575 152.843 54.228 153.856 54.6506 154.344C55.4377 155.262 60.211 161.996 60.2474 162.601C60.3567 164.284 54.6142 168.584 53.1348 168.562C52.7705 168.562 52.5154 168.489 52.1875 168.336C51.0215 167.797 45.2425 159.933 45.2717 158.716C46.8603 156.057 49.9794 154.089 52.8288 152.843L52.8361 152.85Z" fill="#DDE0FF"/>
<path d="M187.74 16.0963C189.62 18.1222 192.499 18.902 195.108 19.5142C196.478 19.8348 199.983 19.2008 199.794 21.4308C199.641 23.2016 195.356 23.1797 193.614 23.7336C184.978 26.4882 184.031 35.481 182.974 43.1255L181.502 43.2713C180.956 43.0891 180.934 42.7101 180.839 42.2364C179.513 35.736 179.389 26.9474 171.934 24.0688C170.156 23.3838 165.018 23.0413 164.326 22.3781C163.918 21.9846 163.801 21.7441 163.954 21.1757C165.011 19.1571 167.022 19.915 168.669 19.5142C176.882 17.532 178.58 13.5457 180.285 5.74814C180.613 4.23964 180.446 -1.45186 182.982 0.348139L183.309 0.86555C183.499 5.40564 184.577 12.6712 187.748 16.0963H187.74ZM191.399 21.3214C186.385 20.3376 183.266 15.7538 181.888 11.1627C180.628 15.3822 177.909 20.0607 173.216 20.8988L173.479 21.766C178.288 23.3182 180.977 28.0405 181.888 32.7409C183.04 29.0753 184.774 25.8761 187.813 23.4348L191.406 21.3287L191.399 21.3214Z" fill="#3617B3"/>
<g filter="url(#filter0_d_8389_33555)">
<path d="M203.93 163.68C201.839 166.637 198.209 168.85 194.702 169.742L88.8271 187.919C80.8236 188.872 73.8259 184.341 71.7441 176.469C69.155 166.689 70.432 172.83 68.2453 162.893C65.0351 148.268 61.7112 133.599 58.7285 118.895C57.7313 113.997 55.4833 108.819 57.1802 103.78L50.34 72.3609C49.9551 66.859 53.2528 62.7216 58.4835 61.3309C65.5687 59.4415 79.0217 57.1935 86.3692 56.5462C99.7522 55.3566 118.48 64.681 132.466 63.5264C150.013 62.0744 169.3 55.4966 186.681 54.2807C191.894 53.9133 195.436 57.7446 196.224 62.6779C197.789 72.5271 198.55 83.1723 199.827 93.1177C202.898 117.05 202.95 121.861 205.364 145.88C205.933 151.574 207.612 158.528 203.947 163.689L203.93 163.68ZM186.462 77.1193C186.112 71.0051 181.677 67.1477 175.581 67.585L74.6831 84.878C68.4465 86.435 65.42 91.4121 66.4784 97.71L186.462 77.1193Z" fill="#5551F5"/>
<path d="M186.464 77.1187L66.4802 97.7093C65.4218 91.4027 68.4482 86.4343 74.6849 84.8773L175.582 67.5844C181.679 67.147 186.123 71.0132 186.464 77.1187Z" fill="white"/>
<path d="M74.4482 104.559L183.212 85.5683" stroke="white" stroke-opacity="0.2" stroke-width="4.02414" stroke-linecap="round"/>
</g>
<path d="M185.512 98.8908L185.347 97.478C185.783 96.3042 189.199 96.2321 190.422 95.8849C195.484 94.4523 202.363 91.0605 204.057 85.6388C206.35 78.3248 199.759 73.0582 202.209 65.276C206.231 52.4724 224.1 57.9406 222.767 39.3627C222.605 37.1292 220.113 31.9476 223.861 32.7256C226.884 39.0957 225.863 49.0606 220.58 53.9765C216.041 58.2019 207.17 59.1639 205.064 65.7044C202.293 74.3032 211.321 79.5104 205.331 89.5406C202.004 95.1188 191.96 100.181 185.506 98.8824L185.512 98.8908Z" fill="#DDE0FF"/>
<path d="M200.749 143.37C204.444 139.667 208.051 137.263 213.582 138.021C221.292 139.085 221.839 149.338 214.296 152.122C209.027 154.068 204.721 151.706 200.742 148.361C195.648 156.829 202.126 164.314 202.673 172.366C202.964 176.717 202.083 181.658 200.042 185.52C199.379 186.774 194.883 193.784 193.221 191.43C192.747 189.412 195.487 187.83 196.668 185.994C205.653 172.024 193.425 163.476 196.923 150.897C197.258 149.688 199.051 146.27 199.051 145.876C199.051 145.184 197.703 142.903 197.44 141.861C195.757 135.098 198.745 127.272 203.044 122.061C203.555 121.442 207.155 117.769 207.526 117.674C208.474 117.426 209.283 118.446 209.195 119.343C207.636 121.609 205.464 123.322 203.861 125.574C200.166 130.762 198.227 137.226 200.727 143.377L200.749 143.37ZM209.873 140.782C207.104 141.183 204.145 143.472 202.695 145.818C204.691 148.274 207.009 149.965 210.296 150.059C218.574 150.307 219.871 139.332 209.873 140.782Z" fill="#DDE0FF"/>
<path d="M54.967 125.066C56.5244 126.761 58.9087 127.414 61.0697 127.926C62.2045 128.194 65.1079 127.664 64.9509 129.53C64.8242 131.012 61.2749 130.994 59.8322 131.457C52.6793 133.762 51.8946 141.288 51.0193 147.686L49.8 147.808C49.3473 147.655 49.3292 147.338 49.2507 146.942C48.1521 141.502 48.0495 134.147 41.8744 131.738C40.4016 131.164 36.1461 130.878 35.5726 130.323C35.2346 129.993 35.138 129.792 35.2648 129.316C36.14 127.627 37.806 128.261 39.1702 127.926C45.973 126.267 47.3795 122.931 48.792 116.406C49.0636 115.143 48.9248 110.38 51.0254 111.887L51.297 112.32C51.4539 116.119 52.3473 122.199 54.9731 125.066H54.967ZM57.9972 129.438C53.8443 128.615 51.2608 124.779 50.1199 120.937C49.0757 124.468 46.8241 128.383 42.9368 129.085L43.1541 129.81C47.138 131.109 49.3654 135.061 50.1199 138.995C51.0737 135.927 52.5103 133.25 55.0274 131.207L58.0033 129.445L57.9972 129.438Z" fill="#3617B3"/>
<defs>
<filter id="filter0_d_8389_33555" x="39.042" y="45.0008" width="178.471" height="156.323" filterUnits="userSpaceOnUse" color-interpolation-filters="sRGB">
<feFlood flood-opacity="0" result="BackgroundImageFix"/>
<feColorMatrix in="SourceAlpha" type="matrix" values="0 0 0 0 0 0 0 0 0 0 0 0 0 0 0 0 0 0 127 0" result="hardAlpha"/>
<feOffset dy="2.01207"/>
<feGaussianBlur stdDeviation="5.63379"/>
<feComposite in2="hardAlpha" operator="out"/>
<feColorMatrix type="matrix" values="0 0 0 0 0 0 0 0 0 0 0 0 0 0 0 0 0 0 0.25 0"/>
<feBlend mode="normal" in2="BackgroundImageFix" result="effect1_dropShadow_8389_33555"/>
<feBlend mode="normal" in="SourceGraphic" in2="effect1_dropShadow_8389_33555" result="shape"/>
</filter>
</defs>
</svg>
