<svg width="32" height="32" viewBox="0 0 32 32" fill="none" xmlns="http://www.w3.org/2000/svg">
<g clip-path="url(#clip0_7513_6376)">
<path d="M27.57 25.5049L22.67 20.5949C22.31 20.2349 21.81 20.1249 21.34 20.2249L20.08 18.9649C20.7 18.1749 21.21 17.2849 21.55 16.3049C21.69 15.8949 21.48 15.4549 21.07 15.3149C20.67 15.1749 20.22 15.3849 20.08 15.7949C19.02 18.8249 16.19 20.8549 13.04 20.8549C8.91 20.8549 5.56 17.4249 5.56 13.2049C5.56 8.98488 8.91 5.56488 13.04 5.56488C16.92 5.56488 20.19 8.65488 20.5 12.6049C20.53 13.0349 20.91 13.3449 21.34 13.3249C21.77 13.2949 22.09 12.9149 22.06 12.4849C21.68 7.72488 17.72 4.00488 13.04 4.00488C8.05 4.00488 4 8.13488 4 13.2049C4 18.2749 8.05 22.4049 13.04 22.4049C15.29 22.4049 17.39 21.5449 19.01 20.0949L20.24 21.3249C20.14 21.7949 20.24 22.2949 20.61 22.6549L25.51 27.5649C25.79 27.8449 26.17 27.9949 26.54 27.9949C26.91 27.9949 27.29 27.8549 27.57 27.5649C28.14 26.9949 28.14 26.0749 27.57 25.5049Z" fill="#1E1E1E"/>
</g>
<defs>
<clipPath id="clip0_7513_6376">
<rect width="24" height="23.99" fill="white" transform="translate(4 4.00488)"/>
</clipPath>
</defs>
</svg>
