<svg width="24" height="24" viewBox="0 0 24 24" fill="none" xmlns="http://www.w3.org/2000/svg">
<path d="M14.9087 2H9.09055C8.89767 2 8.71268 2.07662 8.57629 2.21301C8.4399 2.3494 8.36328 2.53439 8.36328 2.72727V4.90909C8.36328 5.10198 8.4399 5.28696 8.57629 5.42335C8.71268 5.55974 8.89767 5.63636 9.09055 5.63636H14.9087C15.1016 5.63636 15.2866 5.55974 15.423 5.42335C15.5594 5.28696 15.636 5.10198 15.636 4.90909V2.72727C15.636 2.53439 15.5594 2.3494 15.423 2.21301C15.2866 2.07662 15.1016 2 14.9087 2Z" stroke="#5551F5" stroke-width="1.4" stroke-linecap="round" stroke-linejoin="round"/>
<path d="M18 3.81836C18.5786 3.81836 19.1338 4.04797 19.543 4.45703C19.9521 4.86616 20.1816 5.42141 20.1816 6V19.8184C20.1816 20.397 19.9521 20.9522 19.543 21.3613C19.1338 21.7704 18.5786 22 18 22H6C5.71354 22 5.42969 21.9436 5.16504 21.834C4.90041 21.7243 4.65958 21.5639 4.45703 21.3613C4.04792 20.9522 3.81836 20.397 3.81836 19.8184V6C3.81838 5.71354 3.87475 5.42969 3.98438 5.16504C4.09402 4.90038 4.25447 4.6596 4.45703 4.45703C4.86616 4.0479 5.42141 3.81841 6 3.81836H8.36328V4.90918C8.3633 5.10203 8.4398 5.28746 8.57617 5.42383C8.71254 5.56011 8.89802 5.63672 9.09082 5.63672H14.9092C15.1018 5.6366 15.2866 5.55992 15.4229 5.42383C15.5592 5.28746 15.6357 5.10203 15.6357 4.90918V3.81836H18ZM15.2578 9.6123C15.0044 9.38766 14.6518 9.46003 14.4707 9.77441L11.1953 15.4658L9.46973 13.3232C9.24949 13.0499 8.89212 13.0499 8.67188 13.3232C8.45197 13.5965 8.45197 14.0392 8.67188 14.3125L10.8691 17.04C10.9863 17.1854 11.1493 17.2601 11.3145 17.2432C11.4795 17.2262 11.6302 17.1194 11.7266 16.9521L15.3896 10.5889C15.5706 10.2744 15.5111 9.83708 15.2578 9.6123Z" fill="#5551F5"/>
</svg>
