<svg width="24" height="24" viewBox="0 0 24 24" fill="none" xmlns="http://www.w3.org/2000/svg">
<rect x="2.7" y="6.22734" width="18.6" height="14.6" rx="1.3" stroke="#5551F5" stroke-width="1.4"/>
<path d="M16.1426 6.22363V3.47266C16.1426 2.92037 15.6949 2.47266 15.1426 2.47266H8.85547C8.30318 2.47266 7.85547 2.92037 7.85547 3.47266V6.22363" stroke="#5551F5" stroke-width="1.4"/>
<path d="M7.65995 14.3108L3.63111 11.7886C3.04708 11.423 2.69238 10.7824 2.69238 10.0934V8.64062C2.69238 7.53606 3.58782 6.64062 4.69239 6.64062H19.3075C20.412 6.64062 21.3075 7.53606 21.3075 8.64063V10.1127C21.3075 10.7918 20.9629 11.4244 20.3925 11.7928L16.5169 14.2957C16.1935 14.5045 15.8168 14.6156 15.4319 14.6156H8.72122C8.34587 14.6156 7.97809 14.51 7.65995 14.3108Z" fill="#5551F5"/>
</svg>
