<svg width="24" height="24" viewBox="0 0 24 24" fill="none" xmlns="http://www.w3.org/2000/svg">
<mask id="mask0_8009_47649" style="mask-type:alpha" maskUnits="userSpaceOnUse" x="0" y="0" width="24" height="24">
<rect width="24" height="24" fill="#D9D9D9"/>
</mask>
<g mask="url(#mask0_8009_47649)">
<path d="M4.99591 22C4.49091 22 4.06927 21.8309 3.73102 21.4926C3.39276 21.1544 3.22363 20.7327 3.22363 20.2277V6.21952C3.22363 5.71451 3.39276 5.29288 3.73102 4.95462C4.06927 4.61637 4.49091 4.44724 4.99591 4.44724H6.93659V2.59076C6.93659 2.42053 6.99254 2.27947 7.10444 2.16757C7.21634 2.05586 7.35731 2 7.52735 2C7.69758 2 7.83864 2.05586 7.95054 2.16757C8.06225 2.27947 8.11811 2.42053 8.11811 2.59076V4.44724H15.9664V2.54852C15.9664 2.39238 16.0188 2.26192 16.1235 2.15715C16.2283 2.05238 16.3588 2 16.5149 2C16.6709 2 16.8012 2.05238 16.906 2.15715C17.011 2.26192 17.0634 2.39238 17.0634 2.54852V4.44724H19.0041C19.5091 4.44724 19.9308 4.61637 20.269 4.95462C20.6073 5.29288 20.7764 5.71451 20.7764 6.21952V20.2277C20.7764 20.7327 20.6073 21.1544 20.269 21.4926C19.9308 21.8309 19.5091 22 19.0041 22H4.99591ZM4.99591 20.903H19.0041C19.1731 20.903 19.3278 20.8326 19.4684 20.692C19.609 20.5514 19.6793 20.3967 19.6793 20.2277V10.6077H4.32068V20.2277C4.32068 20.3967 4.39098 20.5514 4.53159 20.692C4.67219 20.8326 4.82697 20.903 4.99591 20.903ZM4.32068 9.51039H19.6793V6.21952C19.6793 6.05057 19.609 5.8958 19.4684 5.75519C19.3278 5.61459 19.1731 5.54429 19.0041 5.54429H4.99591C4.82697 5.54429 4.67219 5.61459 4.53159 5.75519C4.39098 5.8958 4.32068 6.05057 4.32068 6.21952V9.51039ZM7.61182 13.7721C7.45568 13.7721 7.32522 13.7198 7.22045 13.615C7.11568 13.5102 7.0633 13.3798 7.0633 13.2236C7.0633 13.0675 7.11568 12.937 7.22045 12.8322C7.32522 12.7275 7.45568 12.6751 7.61182 12.6751H16.3882C16.5443 12.6751 16.6748 12.7275 16.7796 12.8322C16.8843 12.937 16.9367 13.0675 16.9367 13.2236C16.9367 13.3798 16.8843 13.5102 16.7796 13.615C16.6748 13.7198 16.5443 13.7721 16.3882 13.7721H7.61182ZM7.61182 18.1603C7.45568 18.1603 7.32522 18.108 7.22045 18.0032C7.11568 17.8984 7.0633 17.768 7.0633 17.6118C7.0633 17.4557 7.11568 17.3252 7.22045 17.2204C7.32522 17.1157 7.45568 17.0633 7.61182 17.0633H13.0971C13.2532 17.0633 13.3837 17.1157 13.4884 17.2204C13.5932 17.3252 13.6456 17.4557 13.6456 17.6118C13.6456 17.768 13.5932 17.8984 13.4884 18.0032C13.3837 18.108 13.2532 18.1603 13.0971 18.1603H7.61182Z" fill="#5551F5"/>
<path d="M4.32068 9.51039H19.6793V6.21952C19.6793 6.05057 19.609 5.8958 19.4684 5.75519C19.3278 5.61459 19.1731 5.54429 19.0041 5.54429H4.99591C4.82697 5.54429 4.67219 5.61459 4.53159 5.75519C4.39098 5.8958 4.32068 6.05057 4.32068 6.21952V9.51039ZM4.32068 9.51039V5.54429M4.99591 22C4.49091 22 4.06927 21.8309 3.73102 21.4926C3.39276 21.1544 3.22363 20.7327 3.22363 20.2277V6.21952C3.22363 5.71451 3.39276 5.29288 3.73102 4.95462C4.06927 4.61637 4.49091 4.44724 4.99591 4.44724H6.93659V2.59076C6.93659 2.42053 6.99254 2.27947 7.10444 2.16757C7.21634 2.05586 7.35731 2 7.52735 2C7.69758 2 7.83864 2.05586 7.95054 2.16757C8.06225 2.27947 8.11811 2.42053 8.11811 2.59076V4.44724H15.9664V2.54852C15.9664 2.39238 16.0188 2.26192 16.1235 2.15715C16.2283 2.05238 16.3588 2 16.5149 2C16.6709 2 16.8012 2.05238 16.906 2.15715C17.011 2.26192 17.0634 2.39238 17.0634 2.54852V4.44724H19.0041C19.5091 4.44724 19.9308 4.61637 20.269 4.95462C20.6073 5.29288 20.7764 5.71451 20.7764 6.21952V20.2277C20.7764 20.7327 20.6073 21.1544 20.269 21.4926C19.9308 21.8309 19.5091 22 19.0041 22H4.99591ZM4.99591 20.903H19.0041C19.1731 20.903 19.3278 20.8326 19.4684 20.692C19.609 20.5514 19.6793 20.3967 19.6793 20.2277V10.6077H4.32068V20.2277C4.32068 20.3967 4.39098 20.5514 4.53159 20.692C4.67219 20.8326 4.82697 20.903 4.99591 20.903ZM7.61182 13.7721C7.45568 13.7721 7.32522 13.7198 7.22045 13.615C7.11568 13.5102 7.0633 13.3798 7.0633 13.2236C7.0633 13.0675 7.11568 12.937 7.22045 12.8322C7.32522 12.7275 7.45568 12.6751 7.61182 12.6751H16.3882C16.5444 12.6751 16.6748 12.7275 16.7796 12.8322C16.8843 12.937 16.9367 13.0675 16.9367 13.2236C16.9367 13.3798 16.8843 13.5102 16.7796 13.615C16.6748 13.7198 16.5444 13.7721 16.3882 13.7721H7.61182ZM7.61182 18.1603C7.45568 18.1603 7.32522 18.108 7.22045 18.0032C7.11568 17.8984 7.0633 17.768 7.0633 17.6118C7.0633 17.4557 7.11568 17.3252 7.22045 17.2204C7.32522 17.1157 7.45568 17.0633 7.61182 17.0633H13.0971C13.2532 17.0633 13.3837 17.1157 13.4884 17.2204C13.5932 17.3252 13.6456 17.4557 13.6456 17.6118C13.6456 17.768 13.5932 17.8984 13.4884 18.0032C13.3837 18.108 13.2532 18.1603 13.0971 18.1603H7.61182Z" stroke="#5551F5" stroke-width="0.2"/>
</g>
</svg>
