<svg width="24" height="24" viewBox="0 0 24 24" fill="none" xmlns="http://www.w3.org/2000/svg">
<path fill-rule="evenodd" clip-rule="evenodd" d="M11.3765 3.93951C11.7391 3.65418 12.25 3.65438 12.6128 3.93951L19.6187 9.44537C19.8597 9.63496 20.0005 9.92483 20.0005 10.2315V20.5001C20.0003 21.0522 19.5527 21.5001 19.0005 21.5001H5.00049C4.44831 21.5001 4.00066 21.0522 4.00049 20.5001V10.2305C4.00056 9.92404 4.14149 9.63493 4.38232 9.44537L11.3765 3.93951ZM10.1313 13.3829C9.80029 13.3831 9.53195 13.6514 9.53174 13.9825V19.5372C9.53195 19.8682 9.80029 20.1366 10.1313 20.1368H13.8696C14.2007 20.1366 14.469 19.8682 14.4692 19.5372V13.9825C14.469 13.6514 14.2007 13.3831 13.8696 13.3829H10.1313Z" fill="#5551F5"/>
<path d="M11.6153 2.60071C11.8944 2.44362 12.2444 2.46926 12.5 2.67872L22.5 10.8719C22.845 11.1546 22.901 11.6707 22.625 12.024C22.349 12.3774 21.845 12.4347 21.5 12.1521L12 4.36796L2.50002 12.1521C2.15501 12.4347 1.65103 12.3774 1.37502 12.024C1.09901 11.6707 1.15501 11.1546 1.50002 10.8719L11.5 2.67872L11.6153 2.60071Z" fill="#5551F5"/>
</svg>
