<svg width="24" height="24" viewBox="0 0 24 24" fill="none" xmlns="http://www.w3.org/2000/svg">
<path fill-rule="evenodd" clip-rule="evenodd" d="M17.6841 5.27992L16.0571 5.88246C14.7526 6.36517 14.7527 8.21022 16.0571 8.69301L17.6841 9.29457L18.2866 10.9225C18.7064 12.0568 20.1558 12.2043 20.8442 11.3659V18.1139C20.8442 18.6639 20.6486 19.135 20.2573 19.527C19.866 19.919 19.3949 20.1146 18.8442 20.1139H4.84424L2.54443 22.4137C2.22781 22.7303 1.86515 22.8012 1.45654 22.6266C1.04802 22.452 0.843632 22.1396 0.84424 21.6891V6.11391C0.844287 5.564 1.04018 5.09309 1.43213 4.7018C1.8241 4.31053 2.29497 4.11459 2.84424 4.11391H18.1157L17.6841 5.27992ZM10.8442 7.11391C10.6283 7.11326 10.4491 7.18419 10.3071 7.3268C10.1652 7.46942 10.0943 7.64867 10.0942 7.86391V16.3639C10.0942 16.5805 10.1652 16.76 10.3071 16.902C10.4491 17.044 10.6283 17.1146 10.8442 17.1139C11.0609 17.1139 11.2403 17.043 11.3823 16.901C11.5243 16.759 11.5949 16.5799 11.5942 16.3639V7.86391C11.5942 7.64733 11.5233 7.46809 11.3813 7.3268C11.2394 7.18555 11.0602 7.11458 10.8442 7.11391ZM8.09424 9.11391C7.8783 9.11326 7.69911 9.18419 7.55713 9.3268C7.41517 9.46942 7.34428 9.64867 7.34424 9.86391V14.3639C7.34424 14.5805 7.41523 14.76 7.55713 14.902C7.69912 15.044 7.87827 15.1146 8.09424 15.1139C8.3109 15.1139 8.49033 15.043 8.63233 14.901C8.77428 14.759 8.84491 14.5799 8.84424 14.3639V9.86391C8.8442 9.64733 8.7733 9.46809 8.63135 9.3268C8.48937 9.18555 8.31017 9.11458 8.09424 9.11391ZM13.5942 9.11391C13.3783 9.11326 13.1991 9.18419 13.0571 9.3268C12.9152 9.46942 12.8443 9.64867 12.8442 9.86391V14.3639C12.8442 14.5805 12.9152 14.76 13.0571 14.902C13.1991 15.044 13.3783 15.1146 13.5942 15.1139C13.8109 15.1139 13.9903 15.043 14.1323 14.901C14.2743 14.759 14.3449 14.5799 14.3442 14.3639V9.86391C14.3442 9.64733 14.2733 9.46809 14.1313 9.3268C13.9894 9.18555 13.8102 9.11458 13.5942 9.11391ZM5.59424 11.1139C5.3783 11.1133 5.19911 11.1842 5.05713 11.3268C4.91517 11.4694 4.84428 11.6487 4.84424 11.8639V12.3639C4.84424 12.5805 4.91523 12.76 5.05713 12.902C5.19912 13.044 5.37827 13.1146 5.59424 13.1139C5.8109 13.1139 5.99033 13.043 6.13233 12.901C6.27428 12.759 6.34491 12.5799 6.34424 12.3639V11.8639C6.3442 11.6473 6.2733 11.4681 6.13135 11.3268C5.98937 11.1856 5.81017 11.1146 5.59424 11.1139ZM16.0942 11.1139C15.8783 11.1133 15.6991 11.1842 15.5571 11.3268C15.4152 11.4694 15.3443 11.6487 15.3442 11.8639V12.3639C15.3442 12.5805 15.4152 12.76 15.5571 12.902C15.6991 13.044 15.8783 13.1146 16.0942 13.1139C16.3109 13.1139 16.4903 13.043 16.6323 12.901C16.7743 12.759 16.8449 12.5799 16.8442 12.3639V11.8639C16.8442 11.6473 16.7733 11.4681 16.6313 11.3268C16.4894 11.1856 16.3102 11.1146 16.0942 11.1139ZM19.1567 3.96547C19.3387 3.47375 20.0344 3.47375 20.2163 3.96547L20.8813 5.76332C20.9386 5.91791 21.0608 6.0401 21.2153 6.09731L23.0142 6.76235C23.5054 6.94443 23.5054 7.63977 23.0142 7.82192L21.2153 8.48696C21.0607 8.54416 20.9386 8.66635 20.8813 8.82094L20.2163 10.6198C20.0342 11.1111 19.3388 11.1111 19.1567 10.6198L18.4917 8.82094C18.4345 8.66638 18.3123 8.54415 18.1577 8.48696L16.3599 7.82192C15.8681 7.63996 15.8681 6.9443 16.3599 6.76235L18.1577 6.09731C18.3123 6.0401 18.4345 5.91792 18.4917 5.76332L19.1567 3.96547Z" fill="#5551F5"/>
</svg>
