<svg width="24" height="24" viewBox="0 0 24 24" fill="none" xmlns="http://www.w3.org/2000/svg">
<mask id="mask0_9210_5578" style="mask-type:alpha" maskUnits="userSpaceOnUse" x="0" y="0" width="24" height="24">
<rect width="24" height="24" fill="#D9D9D9"/>
</mask>
<g mask="url(#mask0_9210_5578)">
<path d="M4 20.3629V3.63994C4 3.54894 4.03717 3.48902 4.1115 3.46019C4.18583 3.43135 4.25825 3.43935 4.32875 3.48419L5.0345 4.01694C5.109 4.0656 5.18725 4.08994 5.26925 4.08994C5.35125 4.08994 5.42942 4.0656 5.50375 4.01694L6.38075 3.40919C6.45508 3.36035 6.53333 3.33594 6.6155 3.33594C6.6975 3.33594 6.77567 3.36035 6.85 3.40919L7.727 4.01694C7.80133 4.0656 7.8795 4.08994 7.9615 4.08994C8.0435 4.08994 8.12175 4.0656 8.19625 4.01694L9.073 3.40919C9.14733 3.36035 9.22558 3.33594 9.30775 3.33594C9.38975 3.33594 9.46792 3.36035 9.54225 3.40919L10.4193 4.01694C10.4936 4.0656 10.5718 4.08994 10.6537 4.08994C10.7359 4.08994 10.8142 4.0656 10.8885 4.01694L11.7655 3.40919C11.8398 3.36035 11.918 3.33594 12 3.33594C12.082 3.33594 12.1602 3.36035 12.2345 3.40919L13.1115 4.01694C13.1858 4.0656 13.2641 4.08994 13.3462 4.08994C13.4282 4.08994 13.5064 4.0656 13.5807 4.01694L14.4578 3.40919C14.5321 3.36035 14.6103 3.33594 14.6923 3.33594C14.7744 3.33594 14.8527 3.36035 14.927 3.40919L15.8038 4.01694C15.8783 4.0656 15.9565 4.08994 16.0385 4.08994C16.1205 4.08994 16.1987 4.0656 16.273 4.01694L17.15 3.40919C17.2243 3.36035 17.3025 3.33594 17.3845 3.33594C17.4667 3.33594 17.5449 3.36035 17.6193 3.40919L18.4962 4.01694C18.5706 4.0656 18.6488 4.08994 18.7308 4.08994C18.8127 4.08994 18.891 4.0656 18.9655 4.01694L19.6712 3.48419C19.7417 3.43935 19.8142 3.43135 19.8885 3.46019C19.9628 3.48902 20 3.54894 20 3.63994V20.3629C20 20.4539 19.9628 20.5139 19.8885 20.5427C19.8142 20.5715 19.7417 20.5635 19.6712 20.5187L18.9655 19.9859C18.891 19.9373 18.8127 19.9129 18.7308 19.9129C18.6488 19.9129 18.5706 19.9373 18.4962 19.9859L17.6193 20.5937C17.5449 20.6425 17.4667 20.6669 17.3845 20.6669C17.3025 20.6669 17.2243 20.6425 17.15 20.5937L16.273 19.9859C16.1987 19.9373 16.1205 19.9129 16.0385 19.9129C15.9565 19.9129 15.8783 19.9373 15.8038 19.9859L14.927 20.5937C14.8527 20.6425 14.7744 20.6669 14.6923 20.6669C14.6103 20.6669 14.5321 20.6425 14.4578 20.5937L13.5807 19.9859C13.5064 19.9373 13.4282 19.9129 13.3462 19.9129C13.2641 19.9129 13.1858 19.9373 13.1115 19.9859L12.2345 20.5937C12.1602 20.6425 12.082 20.6669 12 20.6669C11.918 20.6669 11.8398 20.6425 11.7655 20.5937L10.8885 19.9859C10.8142 19.9373 10.7359 19.9129 10.6537 19.9129C10.5718 19.9129 10.4936 19.9373 10.4193 19.9859L9.54225 20.5937C9.46792 20.6425 9.38975 20.6669 9.30775 20.6669C9.22558 20.6669 9.14733 20.6425 9.073 20.5937L8.19625 19.9859C8.12175 19.9373 8.0435 19.9129 7.9615 19.9129C7.8795 19.9129 7.80133 19.9373 7.727 19.9859L6.85 20.5937C6.77567 20.6425 6.6975 20.6669 6.6155 20.6669C6.53333 20.6669 6.45508 20.6425 6.38075 20.5937L5.50375 19.9859C5.42942 19.9373 5.35125 19.9129 5.26925 19.9129C5.18725 19.9129 5.109 19.9373 5.0345 19.9859L4.32875 20.5187C4.25825 20.5635 4.18583 20.5715 4.1115 20.5427C4.03717 20.5139 4 20.4539 4 20.3629ZM7 15.8859H17C17.1423 15.8859 17.2613 15.8382 17.3568 15.7427C17.4523 15.6472 17.5 15.5283 17.5 15.3859C17.5 15.2438 17.4523 15.1249 17.3568 15.0294C17.2613 14.9338 17.1423 14.8859 17 14.8859H7C6.85767 14.8859 6.73875 14.9338 6.64325 15.0294C6.54775 15.1249 6.5 15.2438 6.5 15.3859C6.5 15.5283 6.54775 15.6472 6.64325 15.7427C6.73875 15.8382 6.85767 15.8859 7 15.8859ZM7 12.5014H17C17.1423 12.5014 17.2613 12.4537 17.3568 12.3582C17.4523 12.2627 17.5 12.1438 17.5 12.0014C17.5 11.8591 17.4523 11.7402 17.3568 11.6447C17.2613 11.5492 17.1423 11.5014 17 11.5014H7C6.85767 11.5014 6.73875 11.5492 6.64325 11.6447C6.54775 11.7402 6.5 11.8591 6.5 12.0014C6.5 12.1438 6.54775 12.2627 6.64325 12.3582C6.73875 12.4537 6.85767 12.5014 7 12.5014ZM7 9.11694H17C17.1423 9.11694 17.2613 9.0691 17.3568 8.97344C17.4523 8.87794 17.5 8.7591 17.5 8.61694C17.5 8.4746 17.4523 8.35569 17.3568 8.26019C17.2613 8.16469 17.1423 8.11694 17 8.11694H7C6.85767 8.11694 6.73875 8.16469 6.64325 8.26019C6.54775 8.35569 6.5 8.4746 6.5 8.61694C6.5 8.7591 6.54775 8.87794 6.64325 8.97344C6.73875 9.0691 6.85767 9.11694 7 9.11694ZM5 19.1014H19V4.90144H5V19.1014Z" fill="#C5C6CD" stroke="#C5C6CD" stroke-width="0.4"/>
</g>
</svg>
