<svg width="24" height="24" viewBox="0 0 24 24" fill="none" xmlns="http://www.w3.org/2000/svg">
<rect x="7.9002" y="3.09844" width="8.2" height="8.2" rx="4.1" stroke="#C5C6CD" stroke-width="1.4"/>
<mask id="path-2-inside-1_8324_6975" fill="white">
<path d="M2.40039 20.0516C2.40039 16.0751 5.62394 12.8516 9.60039 12.8516H14.4004C18.3768 12.8516 21.6004 16.0751 21.6004 20.0516V20.3984C21.6004 21.0612 21.0631 21.5984 20.4004 21.5984H3.60039C2.93765 21.5984 2.40039 21.0612 2.40039 20.3984V20.0516Z"/>
</mask>
<path d="M2.40039 20.0516C2.40039 16.0751 5.62394 12.8516 9.60039 12.8516H14.4004C18.3768 12.8516 21.6004 16.0751 21.6004 20.0516V20.3984C21.6004 21.0612 21.0631 21.5984 20.4004 21.5984H3.60039C2.93765 21.5984 2.40039 21.0612 2.40039 20.3984V20.0516Z" stroke="#C5C6CD" stroke-width="2.8" mask="url(#path-2-inside-1_8324_6975)"/>
</svg>
