<svg width="20" height="20" viewBox="0 0 20 20" fill="none" xmlns="http://www.w3.org/2000/svg">
<path d="M9.12207 4.00041C9.50107 3.30547 10.4989 3.30547 10.8779 4.00041L12.3932 6.77882C12.537 7.04255 12.7918 7.22764 13.087 7.28294L16.1977 7.86546C16.9758 8.01116 17.2841 8.96018 16.7403 9.53537L14.5661 11.835C14.3597 12.0533 14.2624 12.3528 14.3011 12.6507L14.7083 15.7892C14.8102 16.5741 14.0029 17.1607 13.2878 16.8212L10.4288 15.4641C10.1575 15.3353 9.84254 15.3353 9.57117 15.4641L6.71219 16.8212C5.9971 17.1607 5.18982 16.5741 5.29168 15.7892L5.69892 12.6507C5.73757 12.3528 5.64026 12.0533 5.43388 11.835L3.2597 9.53537C2.71589 8.96018 3.02425 8.01116 3.80229 7.86546L6.91295 7.28294C7.20822 7.22764 7.46299 7.04255 7.60682 6.77882L9.12207 4.00041Z" fill="#FFB038"/>
</svg>
