<svg width="24" height="24" viewBox="0 0 24 24" fill="none" xmlns="http://www.w3.org/2000/svg">
<path d="M15.6363 3.81818H17.9999C18.5786 3.81818 19.1335 4.04805 19.5427 4.45722C19.9519 4.86639 20.1818 5.42135 20.1818 6V19.8182C20.1818 20.3968 19.9519 20.9518 19.5427 21.361C19.1335 21.7701 18.5786 22 17.9999 22H5.99993C5.71341 22 5.4297 21.9436 5.16499 21.8339C4.90028 21.7243 4.65976 21.5636 4.45716 21.361C4.04798 20.9518 3.81812 20.3968 3.81812 19.8182V6C3.81812 5.71348 3.87455 5.42976 3.9842 5.16505C4.09384 4.90034 4.25455 4.65982 4.45716 4.45722C4.86633 4.04805 5.42128 3.81818 5.99993 3.81818H8.36357M8.36357 13.8182L11.0908 16.5455L15.6363 10.1818M9.09084 2H14.909C15.1019 2 15.2869 2.07662 15.4233 2.21301C15.5597 2.3494 15.6363 2.53439 15.6363 2.72727V4.90909C15.6363 5.10198 15.5597 5.28696 15.4233 5.42335C15.2869 5.55974 15.1019 5.63636 14.909 5.63636H9.09084C8.89796 5.63636 8.71297 5.55974 8.57658 5.42335C8.44019 5.28696 8.36357 5.10198 8.36357 4.90909V2.72727C8.36357 2.53439 8.44019 2.3494 8.57658 2.21301C8.71297 2.07662 8.89796 2 9.09084 2Z" stroke="#C5C6CD" stroke-width="1.4" stroke-linecap="round" stroke-linejoin="round"/>
</svg>
