<svg width="24" height="24" viewBox="0 0 24 24" fill="none" xmlns="http://www.w3.org/2000/svg">
<rect x="7.89995" y="3.0999" width="8.2" height="8.2" rx="4.1" stroke="#C5C6CD" stroke-width="1.4"/>
<mask id="path-2-inside-1_8393_33858" fill="white">
<path d="M2.3999 20.053C2.3999 16.0766 5.62345 12.853 9.5999 12.853H14.3999C18.3764 12.853 21.5999 16.0766 21.5999 20.053V20.3999C21.5999 21.0626 21.0626 21.5999 20.3999 21.5999H3.5999C2.93716 21.5999 2.3999 21.0626 2.3999 20.3999V20.053Z"/>
</mask>
<path d="M2.3999 20.053C2.3999 16.0766 5.62345 12.853 9.5999 12.853H14.3999C18.3764 12.853 21.5999 16.0766 21.5999 20.053V20.3999C21.5999 21.0626 21.0626 21.5999 20.3999 21.5999H3.5999C2.93716 21.5999 2.3999 21.0626 2.3999 20.3999V20.053Z" stroke="#C5C6CD" stroke-width="2.8" mask="url(#path-2-inside-1_8393_33858)"/>
</svg>
