<svg width="24" height="24" viewBox="0 0 24 24" fill="none" xmlns="http://www.w3.org/2000/svg">
<g clip-path="url(#clip0_8009_47341)">
<path d="M15.5678 4.7832H3.7439C3.19456 4.78381 2.7239 4.96289 2.3319 5.32045C1.9399 5.678 1.7439 6.10803 1.7439 6.61056V20.8411C1.74323 21.2528 1.94723 21.5385 2.3559 21.6981C2.76456 21.8577 3.12723 21.7928 3.4439 21.5035L5.7439 19.402H19.7439C20.2946 19.4026 20.7656 19.2239 21.1569 18.8657C21.5482 18.5075 21.7439 18.0772 21.7439 17.5747V10.6374" stroke="#999BA5" stroke-width="1.4" stroke-linecap="round"/>
<path d="M18.6348 3.7375C18.8281 3.21513 19.5669 3.21513 19.7602 3.7375L20.4671 5.64787C20.5279 5.8121 20.6574 5.94159 20.8216 6.00236L22.732 6.70926C23.2544 6.90256 23.2544 7.64139 22.732 7.83468L20.8216 8.54158C20.6574 8.60236 20.5279 8.73184 20.4671 8.89607L19.7602 10.8064C19.5669 11.3288 18.8281 11.3288 18.6348 10.8064L17.9279 8.89607C17.8671 8.73184 17.7376 8.60236 17.5734 8.54158L15.663 7.83468C15.1407 7.64139 15.1407 6.90256 15.663 6.70926L17.5734 6.00236C17.7376 5.94159 17.8671 5.8121 17.9279 5.64787L18.6348 3.7375Z" fill="#999BA5"/>
<path d="M7.0319 13.0585C6.8899 13.2005 6.71056 13.2715 6.4939 13.2715C6.2779 13.2722 6.0989 13.2015 5.9569 13.0595C5.8149 12.9175 5.7439 12.7382 5.7439 12.5215V12.0215C5.7439 11.8062 5.8149 11.6272 5.9569 11.4845C6.0989 11.3418 6.2779 11.2708 6.4939 11.2715C6.7099 11.2722 6.8889 11.3432 7.0309 11.4845C7.1729 11.6258 7.2439 11.8048 7.2439 12.0215V12.5215C7.24456 12.7375 7.1739 12.9165 7.0319 13.0585Z" fill="#999BA5"/>
<path d="M9.5319 15.0585C9.3899 15.2005 9.21056 15.2715 8.9939 15.2715C8.7779 15.2722 8.5989 15.2015 8.4569 15.0595C8.3149 14.9175 8.2439 14.7382 8.2439 14.5215V10.0215C8.2439 9.80616 8.3149 9.62716 8.4569 9.48449C8.5989 9.34182 8.7779 9.27082 8.9939 9.27149C9.2099 9.27216 9.3889 9.34316 9.5309 9.48449C9.6729 9.62582 9.7439 9.80482 9.7439 10.0215V14.5215C9.74456 14.7375 9.6739 14.9165 9.5319 15.0585Z" fill="#999BA5"/>
<path d="M12.2819 17.0585C12.1399 17.2005 11.9606 17.2715 11.7439 17.2715C11.5279 17.2722 11.3489 17.2015 11.2069 17.0595C11.0649 16.9175 10.9939 16.7382 10.9939 16.5215V8.02149C10.9939 7.80616 11.0649 7.62716 11.2069 7.48449C11.3489 7.34182 11.5279 7.27082 11.7439 7.27149C11.9599 7.27216 12.1389 7.34316 12.2809 7.48449C12.4229 7.62582 12.4939 7.80482 12.4939 8.02149V16.5215C12.4946 16.7375 12.4239 16.9165 12.2819 17.0585Z" fill="#999BA5"/>
<path d="M15.0319 15.0585C14.8899 15.2005 14.7106 15.2715 14.4939 15.2715C14.2779 15.2722 14.0989 15.2015 13.9569 15.0595C13.8149 14.9175 13.7439 14.7382 13.7439 14.5215V10.0215C13.7439 9.80616 13.8149 9.62716 13.9569 9.48449C14.0989 9.34182 14.2779 9.27082 14.4939 9.27149C14.7099 9.27216 14.8889 9.34316 15.0309 9.48449C15.1729 9.62582 15.2439 9.80482 15.2439 10.0215V14.5215C15.2446 14.7375 15.1739 14.9165 15.0319 15.0585Z" fill="#999BA5"/>
<path d="M17.5319 13.0585C17.3899 13.2005 17.2106 13.2715 16.9939 13.2715C16.7779 13.2722 16.5989 13.2015 16.4569 13.0595C16.3149 12.9175 16.2439 12.7382 16.2439 12.5215V12.0215C16.2439 11.8062 16.3149 11.6272 16.4569 11.4845C16.5989 11.3418 16.7779 11.2708 16.9939 11.2715C17.2099 11.2722 17.3889 11.3432 17.5309 11.4845C17.6729 11.6258 17.7439 11.8048 17.7439 12.0215V12.5215C17.7446 12.7375 17.6739 12.9165 17.5319 13.0585Z" fill="#999BA5"/>
</g>
<defs>
<clipPath id="clip0_8009_47341">
<rect width="24" height="24" fill="white"/>
</clipPath>
</defs>
</svg>
