<svg width="20" height="20" viewBox="0 0 20 20" fill="none" xmlns="http://www.w3.org/2000/svg">
<mask id="mask0_7646_3239" style="mask-type:alpha" maskUnits="userSpaceOnUse" x="0" y="0" width="20" height="20">
<rect width="20" height="20" fill="#D9D9D9"/>
</mask>
<g mask="url(#mask0_7646_3239)">
<path d="M5.25646 16.2503C4.83549 16.2503 4.47917 16.1045 4.1875 15.8128C3.89583 15.5211 3.75 15.1648 3.75 14.7438V13.1092C3.75 12.9319 3.80986 12.7834 3.92958 12.6638C4.04917 12.5441 4.19764 12.4842 4.375 12.4842C4.55236 12.4842 4.70083 12.5441 4.82042 12.6638C4.94014 12.7834 5 12.9319 5 13.1092V14.7438C5 14.808 5.02674 14.8667 5.08021 14.9201C5.13354 14.9735 5.19229 15.0003 5.25646 15.0003H14.7435C14.8077 15.0003 14.8665 14.9735 14.9198 14.9201C14.9733 14.8667 15 14.808 15 14.7438V13.1092C15 12.9319 15.0599 12.7834 15.1796 12.6638C15.2992 12.5441 15.4476 12.4842 15.625 12.4842C15.8024 12.4842 15.9508 12.5441 16.0704 12.6638C16.1901 12.7834 16.25 12.9319 16.25 13.1092V14.7438C16.25 15.1648 16.1042 15.5211 15.8125 15.8128C15.5208 16.1045 15.1645 16.2503 14.7435 16.2503H5.25646ZM9.375 6.15737L7.7725 7.75987C7.64847 7.88376 7.50132 7.94494 7.33104 7.94341C7.16063 7.94174 7.01076 7.87626 6.88146 7.74695C6.76076 7.61779 6.69826 7.47147 6.69396 7.30799C6.68965 7.14452 6.75215 6.99813 6.88146 6.86883L9.47271 4.27758C9.55076 4.19952 9.63306 4.14452 9.71958 4.11258C9.80611 4.08049 9.89958 4.06445 10 4.06445C10.1004 4.06445 10.1939 4.08049 10.2804 4.11258C10.3669 4.14452 10.4492 4.19952 10.5273 4.27758L13.1185 6.86883C13.2424 6.99272 13.3036 7.13779 13.3021 7.30404C13.3004 7.47015 13.2392 7.61779 13.1185 7.74695C12.9892 7.87626 12.8408 7.94306 12.6731 7.94737C12.5053 7.95168 12.3568 7.88918 12.2275 7.75987L10.625 6.15737V12.5324C10.625 12.7097 10.5651 12.8582 10.4454 12.9778C10.3258 13.0975 10.1774 13.1574 10 13.1574C9.82264 13.1574 9.67417 13.0975 9.55458 12.9778C9.43486 12.8582 9.375 12.7097 9.375 12.5324V6.15737Z" fill="#6F717C"/>
</g>
</svg>
