<svg width="13" height="14" viewBox="0 0 13 14" fill="none" xmlns="http://www.w3.org/2000/svg">
<path d="M0 7.78008C0 6.37091 0.406528 5.00154 1.21958 3.67195C2.03264 2.34237 3.1475 1.17327 4.56417 0.164661C4.83222 -0.0329781 5.11347 -0.0527008 5.40792 0.105494C5.70222 0.263549 5.84937 0.506049 5.84937 0.832993V1.53966C5.84937 2.04924 6.0566 2.49452 6.47104 2.87549C6.88562 3.25633 7.37444 3.44674 7.9375 3.44674C8.18431 3.44674 8.42333 3.39869 8.65458 3.30258C8.88597 3.20647 9.09833 3.06917 9.29167 2.8907C9.40278 2.77848 9.53444 2.71306 9.68667 2.69445C9.83889 2.6757 9.98069 2.71654 10.1121 2.81695C10.8589 3.40459 11.4436 4.13508 11.8663 5.00841C12.2888 5.88188 12.5 6.80577 12.5 7.78008C12.5 9.02897 12.1693 10.1515 11.5079 11.1478C10.8467 12.144 9.98986 12.8858 8.9375 13.373C9.20569 13.077 9.41507 12.7405 9.56563 12.3634C9.71632 11.9863 9.79167 11.5835 9.79167 11.1551C9.79167 10.6904 9.70354 10.2475 9.52729 9.82654C9.3509 9.40556 9.09764 9.03008 8.7675 8.70008L6.25 6.23695L3.75333 8.70008C3.41458 9.03869 3.15576 9.41501 2.97688 9.82904C2.79785 10.2429 2.70833 10.6849 2.70833 11.1551C2.70833 11.5835 2.78368 11.9863 2.93438 12.3634C3.08493 12.7405 3.29431 13.077 3.5625 13.373C2.51014 12.8858 1.65333 12.144 0.992083 11.1478C0.330694 10.1515 0 9.02897 0 7.78008ZM6.25 7.98529L7.87667 9.5782C8.09139 9.79292 8.2559 10.0328 8.37021 10.2978C8.48451 10.5626 8.54167 10.8484 8.54167 11.1551C8.54167 11.7769 8.31861 12.3073 7.8725 12.7463C7.42653 13.1855 6.88569 13.4051 6.25 13.4051C5.61431 13.4051 5.07347 13.1855 4.6275 12.7463C4.18139 12.3073 3.95833 11.7769 3.95833 11.1551C3.95833 10.8623 4.01417 10.5813 4.12583 10.3122C4.2375 10.0429 4.40333 9.7982 4.62333 9.5782L6.25 7.98529Z" fill="white"/>
</svg>
