<svg width="24" height="26" viewBox="0 0 24 26" fill="none" xmlns="http://www.w3.org/2000/svg">
<path d="M12.436 24.128V22.3127C12.436 22.152 12.465 21.9991 12.523 21.854C12.5812 21.7087 12.6727 21.5736 12.7973 21.4487L19.6743 14.605C19.8401 14.4479 20.0196 14.3334 20.2127 14.2617C20.406 14.1899 20.5992 14.154 20.7923 14.154C20.9992 14.154 21.2013 14.1932 21.3987 14.2717C21.596 14.3503 21.7733 14.4683 21.9307 14.6257L23.164 15.8717C23.3076 16.0377 23.4187 16.2172 23.4973 16.4103C23.576 16.6034 23.6153 16.7966 23.6153 16.9897C23.6153 17.1828 23.5794 17.3793 23.5077 17.5793C23.4359 17.7793 23.3213 17.9622 23.164 18.128L16.3203 24.9717C16.1957 25.0966 16.0607 25.188 15.9153 25.246C15.77 25.3042 15.617 25.3333 15.4563 25.3333H13.641C13.2974 25.3333 13.0107 25.2183 12.7807 24.9883C12.5509 24.7586 12.436 24.4718 12.436 24.128ZM14.0257 23.7437H15.2923L19.6203 19.3947L18.387 18.136L14.0257 22.477V23.7437ZM2.41033 25.3333C1.73678 25.3333 1.16667 25.1 0.7 24.6333C0.233333 24.1667 0 23.5966 0 22.923V2.41033C0 1.73678 0.233333 1.16667 0.7 0.7C1.16667 0.233333 1.73678 0 2.41033 0H12.0027C12.324 0 12.633 0.0624443 12.9297 0.187333C13.2261 0.312 13.4838 0.483778 13.7027 0.702667L19.2973 6.29733C19.5162 6.51622 19.688 6.77389 19.8127 7.07033C19.9376 7.367 20 7.676 20 7.99733V10.064C20 10.3478 19.9042 10.5854 19.7127 10.777C19.5213 10.9683 19.2838 11.064 19 11.064C18.7162 11.064 18.4787 10.9683 18.2873 10.777C18.0958 10.5854 18 10.3478 18 10.064V8H13.2053C12.8616 8 12.5748 7.885 12.345 7.655C12.115 7.42522 12 7.13845 12 6.79467V2H2.41033C2.30767 2 2.21367 2.04278 2.12833 2.12833C2.04278 2.21367 2 2.30767 2 2.41033V22.923C2 23.0257 2.04278 23.1197 2.12833 23.205C2.21367 23.2906 2.30767 23.3333 2.41033 23.3333H8.51267C8.79644 23.3333 9.03411 23.4291 9.22567 23.6207C9.417 23.812 9.51267 24.0496 9.51267 24.3333C9.51267 24.6171 9.417 24.8547 9.22567 25.046C9.03411 25.2376 8.79644 25.3333 8.51267 25.3333H2.41033ZM19.0203 18.7487L18.387 18.136L19.6203 19.3947L19.0203 18.7487Z" fill="white"/>
</svg>
