<svg width="24" height="29" viewBox="0 0 24 29" fill="none" xmlns="http://www.w3.org/2000/svg">
<path d="M16.6912 3.35784H19.8427C20.6142 3.35784 21.3542 3.66433 21.8997 4.20989C22.4453 4.75545 22.7518 5.49539 22.7518 6.26693V24.6912C22.7518 25.4627 22.4453 26.2026 21.8997 26.7482C21.3542 27.2938 20.6142 27.6003 19.8427 27.6003H3.84268C3.46066 27.6003 3.08237 27.525 2.72942 27.3788C2.37648 27.2326 2.05578 27.0183 1.78565 26.7482C1.24009 26.2026 0.933594 25.4627 0.933594 24.6912V6.26693C0.933594 5.8849 1.00884 5.50661 1.15504 5.15367C1.30123 4.80072 1.51551 4.48002 1.78565 4.20989C2.33121 3.66433 3.07115 3.35784 3.84268 3.35784H6.9942M6.9942 16.6912L10.6306 20.3275L16.6912 11.8427M7.9639 0.933594H15.7215C15.9787 0.933594 16.2253 1.03576 16.4072 1.21761C16.589 1.39946 16.6912 1.64611 16.6912 1.90329V4.81238C16.6912 5.06956 16.589 5.31621 16.4072 5.49806C16.2253 5.67991 15.9787 5.78208 15.7215 5.78208H7.9639C7.70672 5.78208 7.46007 5.67991 7.27822 5.49806C7.09636 5.31621 6.9942 5.06956 6.9942 4.81238V1.90329C6.9942 1.64611 7.09636 1.39946 7.27822 1.21761C7.46007 1.03576 7.70672 0.933594 7.9639 0.933594Z" stroke="white" stroke-width="1.86667" stroke-linecap="round" stroke-linejoin="round"/>
</svg>
