<svg width="32" height="32" viewBox="0 0 32 32" fill="none" xmlns="http://www.w3.org/2000/svg">
<g clip-path="url(#clip0_8220_45491)">
<path d="M20.7571 6.37891H4.99186C4.25942 6.37972 3.63186 6.61849 3.1092 7.09523C2.58653 7.57197 2.3252 8.14535 2.3252 8.81538V27.7894C2.32431 28.3384 2.59631 28.7193 3.1412 28.9321C3.68609 29.1449 4.16964 29.0584 4.59186 28.6726L7.65853 25.8707H26.3252C27.0594 25.8715 27.6874 25.6331 28.2092 25.1556C28.731 24.678 28.9919 24.1042 28.9919 23.4342V14.1844" stroke="white" stroke-width="1.86667" stroke-linecap="round"/>
<path d="M24.8464 4.98464C25.1041 4.28814 26.0892 4.28814 26.347 4.98464L27.2895 7.5318C27.3705 7.75077 27.5432 7.92342 27.7621 8.00445L30.3093 8.94698C31.0058 9.20471 31.0058 10.1898 30.3093 10.4475L27.7621 11.3901C27.5432 11.4711 27.3705 11.6438 27.2895 11.8627L26.347 14.4099C26.0892 15.1064 25.1041 15.1064 24.8464 14.4099L23.9039 11.8627C23.8228 11.6438 23.6502 11.4711 23.4312 11.3901L20.8841 10.4475C20.1876 10.1898 20.1876 9.20471 20.8841 8.94698L23.4312 8.00445C23.6502 7.92342 23.8228 7.75077 23.9039 7.5318L24.8464 4.98464Z" fill="white"/>
<path d="M9.37651 17.4152C9.18718 17.6046 8.94807 17.6992 8.65918 17.6992C8.37118 17.7001 8.13251 17.6059 7.94318 17.4166C7.75385 17.2272 7.65918 16.9881 7.65918 16.6992V16.0326C7.65918 15.7454 7.75385 15.5068 7.94318 15.3166C8.13251 15.1263 8.37118 15.0317 8.65918 15.0326C8.94718 15.0334 9.18585 15.1281 9.37518 15.3166C9.56451 15.505 9.65918 15.7437 9.65918 16.0326V16.6992C9.66007 16.9872 9.56585 17.2259 9.37651 17.4152Z" fill="white"/>
<path d="M12.7098 20.0819C12.5205 20.2712 12.2814 20.3659 11.9925 20.3659C11.7045 20.3668 11.4658 20.2726 11.2765 20.0832C11.0872 19.8939 10.9925 19.6548 10.9925 19.3659V13.3659C10.9925 13.0788 11.0872 12.8401 11.2765 12.6499C11.4658 12.4597 11.7045 12.365 11.9925 12.3659C12.2805 12.3668 12.5192 12.4614 12.7085 12.6499C12.8978 12.8383 12.9925 13.077 12.9925 13.3659V19.3659C12.9934 19.6539 12.8992 19.8926 12.7098 20.0819Z" fill="white"/>
<path d="M16.3765 22.7486C16.1872 22.9379 15.9481 23.0326 15.6592 23.0326C15.3712 23.0334 15.1325 22.9392 14.9432 22.7499C14.7538 22.5606 14.6592 22.3214 14.6592 22.0326V10.6992C14.6592 10.4121 14.7538 10.1734 14.9432 9.98322C15.1325 9.793 15.3712 9.69834 15.6592 9.69922C15.9472 9.70011 16.1858 9.79478 16.3752 9.98322C16.5645 10.1717 16.6592 10.4103 16.6592 10.6992V22.0326C16.6601 22.3206 16.5658 22.5592 16.3765 22.7486Z" fill="white"/>
<path d="M20.0432 20.0819C19.8538 20.2712 19.6147 20.3659 19.3258 20.3659C19.0378 20.3668 18.7992 20.2726 18.6098 20.0832C18.4205 19.8939 18.3258 19.6548 18.3258 19.3659V13.3659C18.3258 13.0788 18.4205 12.8401 18.6098 12.6499C18.7992 12.4597 19.0378 12.365 19.3258 12.3659C19.6138 12.3668 19.8525 12.4614 20.0418 12.6499C20.2312 12.8383 20.3258 13.077 20.3258 13.3659V19.3659C20.3267 19.6539 20.2325 19.8926 20.0432 20.0819Z" fill="white"/>
<path d="M23.3765 17.4152C23.1872 17.6046 22.9481 17.6992 22.6592 17.6992C22.3712 17.7001 22.1325 17.6059 21.9432 17.4166C21.7538 17.2272 21.6592 16.9881 21.6592 16.6992V16.0326C21.6592 15.7454 21.7538 15.5068 21.9432 15.3166C22.1325 15.1263 22.3712 15.0317 22.6592 15.0326C22.9472 15.0334 23.1858 15.1281 23.3752 15.3166C23.5645 15.505 23.6592 15.7437 23.6592 16.0326V16.6992C23.6601 16.9872 23.5658 17.2259 23.3765 17.4152Z" fill="white"/>
</g>
<defs>
<clipPath id="clip0_8220_45491">
<rect width="32" height="32" fill="white"/>
</clipPath>
</defs>
</svg>
