<svg width="1280" height="300" viewBox="0 0 1280 300" fill="none" xmlns="http://www.w3.org/2000/svg">
<g clip-path="url(#clip0_8254_21536)">
<rect width="1280" height="300" fill="url(#paint0_linear_8254_21536)"/>
<path d="M-18.431 20.6234C27.8809 106.142 99.1955 173.693 176.951 224.683C254.707 275.673 342.226 311.908 433.829 314.397C475.741 315.541 518.805 312.008 556.04 289.404C592.106 267.522 621.266 229.541 621.637 183.088C622.027 135.431 593.832 91.1057 558.137 65.2896C537.794 50.5749 513.385 39.333 488.567 39.4936C467.258 39.6341 443.741 50.6551 435.165 73.179C426.255 96.5861 438.172 121.92 451.351 140.309C466.627 161.588 486.916 179.033 507.148 194.491C547.093 225.024 593.535 249.194 642.835 253.751C754.039 264.029 842.004 171.625 943.89 140.49C991.018 126.076 1040.3 125.333 1085.24 148.098C1122.2 166.828 1154.1 202.561 1161.04 247.247C1165.22 274.147 1158.5 301.288 1134.59 314.256C1112.41 326.281 1087.73 321.604 1066.51 309.499C1023.09 284.706 989.459 238.073 971.491 189.412C955.472 146.03 956.233 84.5814 1003.53 65.2294C1050.82 45.8773 1096.02 88.7971 1142.46 96.5861C1164.65 100.32 1185.81 90.8848 1193.42 66.8554C1200.41 44.7732 1192.27 21.627 1177.32 5.8483C1170.7 -1.1377 1162.47 -7.42109 1153.06 -8.76609C1143.65 -10.1111 1138.07 -3.14519 1141.76 6.99255C1145.25 16.6083 1154.88 22.2092 1162.94 26.6056C1175.34 33.3908 1188.7 38.1485 1202.22 41.4809C1227.44 47.7041 1253.8 47.8446 1279.1 42.1635C1296.58 38.2489 1304.06 67.277 1286.5 71.1915C1258.23 77.5151 1229.56 77.8965 1201.21 71.9544C1176.21 66.7149 1147.22 56.7779 1128.32 37.4459C1110.2 18.8969 1105.45 -16.8361 1129.21 -32.916C1150.45 -47.2895 1177.1 -34.6424 1193.96 -18.5626C1231.02 16.789 1236.24 87.1108 1190.04 117.062C1138.94 150.186 1089.25 97.8909 1039.28 91.0655C1017.75 88.1346 997.125 96.4054 991.26 120.796C985.747 143.661 992.689 168.815 1001.71 189.552C1012.68 214.766 1027.86 237.45 1046.69 256.481C1063.11 273.083 1087.65 295.205 1111.93 290.909C1121.03 289.303 1130.03 283.903 1133.28 274.147C1137.03 262.845 1133.68 248.993 1130.2 238.093C1123.51 217.235 1109 199.469 1092.35 187.103C1051.18 156.509 1001.54 154.723 954.507 168.494C845.642 200.352 754.726 298.437 635.262 282.94C582.064 276.034 532.429 251.262 489.291 217.476C450.534 187.123 398.84 140.931 404.724 82.7346C407.489 55.3527 423.601 32.2065 446.302 20.0412C471.472 6.55097 500.299 6.9324 526.768 15.8255C573.804 31.6444 615.809 69.947 636.134 118.789C656.459 167.631 653.471 220.407 624.941 262.986C597.804 303.476 554.592 330.296 509.32 339.089C411.684 358.039 309.204 330.939 221.295 284.987C137.581 241.225 58.7864 179.234 -0.221788 101.083C-15.7952 80.4461 -30.0507 58.7252 -42.5057 35.7397C-51.5824 18.9773 -27.5263 3.82085 -18.4681 20.5431L-18.431 20.6234Z" fill="url(#paint1_linear_8254_21536)" fill-opacity="0.1"/>
</g>
<defs>
<linearGradient id="paint0_linear_8254_21536" x1="0" y1="150" x2="1280" y2="150" gradientUnits="userSpaceOnUse">
<stop stop-color="#5551F5"/>
<stop offset="1" stop-color="#2E1499"/>
</linearGradient>
<linearGradient id="paint1_linear_8254_21536" x1="1038.45" y1="97.8111" x2="498.091" y2="97.8111" gradientUnits="userSpaceOnUse">
<stop stop-color="white"/>
<stop offset="1" stop-color="#00F2FF"/>
</linearGradient>
<clipPath id="clip0_8254_21536">
<rect width="1280" height="300" fill="white"/>
</clipPath>
</defs>
</svg>
